G04 #@! TF.GenerationSoftware,KiCad,Pcbnew,(5.1.5)-3*
G04 #@! TF.CreationDate,2021-01-08T13:27:43+01:00*
G04 #@! TF.ProjectId,ndsbreakoutboard,6e647362-7265-4616-9b6f-7574626f6172,1.0*
G04 #@! TF.SameCoordinates,Original*
G04 #@! TF.FileFunction,Copper,L2,Bot*
G04 #@! TF.FilePolarity,Positive*
%FSLAX46Y46*%
G04 Gerber Fmt 4.6, Leading zero omitted, Abs format (unit mm)*
G04 Created by KiCad (PCBNEW (5.1.5)-3) date 2021-01-08 13:27:43*
%MOMM*%
%LPD*%
G04 APERTURE LIST*
%ADD10C,0.300000*%
%ADD11C,0.150000*%
%ADD12C,0.850000*%
%ADD13O,0.850000X0.850000*%
%ADD14R,0.850000X0.850000*%
%ADD15C,2.100000*%
G04 APERTURE END LIST*
D10*
X110270657Y-75522971D02*
X109913514Y-76522971D01*
X109556371Y-75522971D01*
X108199228Y-76522971D02*
X109056371Y-76522971D01*
X108627800Y-76522971D02*
X108627800Y-75022971D01*
X108770657Y-75237257D01*
X108913514Y-75380114D01*
X109056371Y-75451542D01*
X107556371Y-76380114D02*
X107484942Y-76451542D01*
X107556371Y-76522971D01*
X107627800Y-76451542D01*
X107556371Y-76380114D01*
X107556371Y-76522971D01*
X106556371Y-75022971D02*
X106413514Y-75022971D01*
X106270657Y-75094400D01*
X106199228Y-75165828D01*
X106127800Y-75308685D01*
X106056371Y-75594400D01*
X106056371Y-75951542D01*
X106127800Y-76237257D01*
X106199228Y-76380114D01*
X106270657Y-76451542D01*
X106413514Y-76522971D01*
X106556371Y-76522971D01*
X106699228Y-76451542D01*
X106770657Y-76380114D01*
X106842085Y-76237257D01*
X106913514Y-75951542D01*
X106913514Y-75594400D01*
X106842085Y-75308685D01*
X106770657Y-75165828D01*
X106699228Y-75094400D01*
X106556371Y-75022971D01*
D11*
X110182142Y-72607142D02*
X110182142Y-71707142D01*
X109667857Y-72607142D01*
X109667857Y-71707142D01*
X109239285Y-72607142D02*
X109239285Y-72007142D01*
X109239285Y-71707142D02*
X109282142Y-71750000D01*
X109239285Y-71792857D01*
X109196428Y-71750000D01*
X109239285Y-71707142D01*
X109239285Y-71792857D01*
X108810714Y-72007142D02*
X108810714Y-72607142D01*
X108810714Y-72092857D02*
X108767857Y-72050000D01*
X108682142Y-72007142D01*
X108553571Y-72007142D01*
X108467857Y-72050000D01*
X108425000Y-72135714D01*
X108425000Y-72607142D01*
X108125000Y-72007142D02*
X107782142Y-72007142D01*
X107996428Y-71707142D02*
X107996428Y-72478571D01*
X107953571Y-72564285D01*
X107867857Y-72607142D01*
X107782142Y-72607142D01*
X107139285Y-72564285D02*
X107225000Y-72607142D01*
X107396428Y-72607142D01*
X107482142Y-72564285D01*
X107525000Y-72478571D01*
X107525000Y-72135714D01*
X107482142Y-72050000D01*
X107396428Y-72007142D01*
X107225000Y-72007142D01*
X107139285Y-72050000D01*
X107096428Y-72135714D01*
X107096428Y-72221428D01*
X107525000Y-72307142D01*
X106710714Y-72007142D02*
X106710714Y-72607142D01*
X106710714Y-72092857D02*
X106667857Y-72050000D01*
X106582142Y-72007142D01*
X106453571Y-72007142D01*
X106367857Y-72050000D01*
X106325000Y-72135714D01*
X106325000Y-72607142D01*
X105510714Y-72607142D02*
X105510714Y-71707142D01*
X105510714Y-72564285D02*
X105596428Y-72607142D01*
X105767857Y-72607142D01*
X105853571Y-72564285D01*
X105896428Y-72521428D01*
X105939285Y-72435714D01*
X105939285Y-72178571D01*
X105896428Y-72092857D01*
X105853571Y-72050000D01*
X105767857Y-72007142D01*
X105596428Y-72007142D01*
X105510714Y-72050000D01*
X104953571Y-72607142D02*
X105039285Y-72564285D01*
X105082142Y-72521428D01*
X105125000Y-72435714D01*
X105125000Y-72178571D01*
X105082142Y-72092857D01*
X105039285Y-72050000D01*
X104953571Y-72007142D01*
X104825000Y-72007142D01*
X104739285Y-72050000D01*
X104696428Y-72092857D01*
X104653571Y-72178571D01*
X104653571Y-72435714D01*
X104696428Y-72521428D01*
X104739285Y-72564285D01*
X104825000Y-72607142D01*
X104953571Y-72607142D01*
X103582142Y-72607142D02*
X103582142Y-71707142D01*
X103367857Y-71707142D01*
X103239285Y-71750000D01*
X103153571Y-71835714D01*
X103110714Y-71921428D01*
X103067857Y-72092857D01*
X103067857Y-72221428D01*
X103110714Y-72392857D01*
X103153571Y-72478571D01*
X103239285Y-72564285D01*
X103367857Y-72607142D01*
X103582142Y-72607142D01*
X102725000Y-72564285D02*
X102596428Y-72607142D01*
X102382142Y-72607142D01*
X102296428Y-72564285D01*
X102253571Y-72521428D01*
X102210714Y-72435714D01*
X102210714Y-72350000D01*
X102253571Y-72264285D01*
X102296428Y-72221428D01*
X102382142Y-72178571D01*
X102553571Y-72135714D01*
X102639285Y-72092857D01*
X102682142Y-72050000D01*
X102725000Y-71964285D01*
X102725000Y-71878571D01*
X102682142Y-71792857D01*
X102639285Y-71750000D01*
X102553571Y-71707142D01*
X102339285Y-71707142D01*
X102210714Y-71750000D01*
X100410714Y-72607142D02*
X100453571Y-72607142D01*
X100539285Y-72564285D01*
X100667857Y-72435714D01*
X100882142Y-72178571D01*
X100967857Y-72050000D01*
X101010714Y-71921428D01*
X101010714Y-71835714D01*
X100967857Y-71750000D01*
X100882142Y-71707142D01*
X100839285Y-71707142D01*
X100753571Y-71750000D01*
X100710714Y-71835714D01*
X100710714Y-71878571D01*
X100753571Y-71964285D01*
X100796428Y-72007142D01*
X101053571Y-72178571D01*
X101096428Y-72221428D01*
X101139285Y-72307142D01*
X101139285Y-72435714D01*
X101096428Y-72521428D01*
X101053571Y-72564285D01*
X100967857Y-72607142D01*
X100839285Y-72607142D01*
X100753571Y-72564285D01*
X100710714Y-72521428D01*
X100582142Y-72350000D01*
X100539285Y-72221428D01*
X100539285Y-72135714D01*
X99425000Y-71707142D02*
X98867857Y-71707142D01*
X99167857Y-72050000D01*
X99039285Y-72050000D01*
X98953571Y-72092857D01*
X98910714Y-72135714D01*
X98867857Y-72221428D01*
X98867857Y-72435714D01*
X98910714Y-72521428D01*
X98953571Y-72564285D01*
X99039285Y-72607142D01*
X99296428Y-72607142D01*
X99382142Y-72564285D01*
X99425000Y-72521428D01*
X98482142Y-72607142D02*
X98482142Y-71707142D01*
X98267857Y-71707142D01*
X98139285Y-71750000D01*
X98053571Y-71835714D01*
X98010714Y-71921428D01*
X97967857Y-72092857D01*
X97967857Y-72221428D01*
X98010714Y-72392857D01*
X98053571Y-72478571D01*
X98139285Y-72564285D01*
X98267857Y-72607142D01*
X98482142Y-72607142D01*
X97625000Y-72564285D02*
X97496428Y-72607142D01*
X97282142Y-72607142D01*
X97196428Y-72564285D01*
X97153571Y-72521428D01*
X97110714Y-72435714D01*
X97110714Y-72350000D01*
X97153571Y-72264285D01*
X97196428Y-72221428D01*
X97282142Y-72178571D01*
X97453571Y-72135714D01*
X97539285Y-72092857D01*
X97582142Y-72050000D01*
X97625000Y-71964285D01*
X97625000Y-71878571D01*
X97582142Y-71792857D01*
X97539285Y-71750000D01*
X97453571Y-71707142D01*
X97239285Y-71707142D01*
X97110714Y-71750000D01*
X95739285Y-72135714D02*
X95610714Y-72178571D01*
X95567857Y-72221428D01*
X95525000Y-72307142D01*
X95525000Y-72435714D01*
X95567857Y-72521428D01*
X95610714Y-72564285D01*
X95696428Y-72607142D01*
X96039285Y-72607142D01*
X96039285Y-71707142D01*
X95739285Y-71707142D01*
X95653571Y-71750000D01*
X95610714Y-71792857D01*
X95567857Y-71878571D01*
X95567857Y-71964285D01*
X95610714Y-72050000D01*
X95653571Y-72092857D01*
X95739285Y-72135714D01*
X96039285Y-72135714D01*
X95139285Y-72607142D02*
X95139285Y-72007142D01*
X95139285Y-72178571D02*
X95096428Y-72092857D01*
X95053571Y-72050000D01*
X94967857Y-72007142D01*
X94882142Y-72007142D01*
X94239285Y-72564285D02*
X94325000Y-72607142D01*
X94496428Y-72607142D01*
X94582142Y-72564285D01*
X94625000Y-72478571D01*
X94625000Y-72135714D01*
X94582142Y-72050000D01*
X94496428Y-72007142D01*
X94325000Y-72007142D01*
X94239285Y-72050000D01*
X94196428Y-72135714D01*
X94196428Y-72221428D01*
X94625000Y-72307142D01*
X93425000Y-72607142D02*
X93425000Y-72135714D01*
X93467857Y-72050000D01*
X93553571Y-72007142D01*
X93725000Y-72007142D01*
X93810714Y-72050000D01*
X93425000Y-72564285D02*
X93510714Y-72607142D01*
X93725000Y-72607142D01*
X93810714Y-72564285D01*
X93853571Y-72478571D01*
X93853571Y-72392857D01*
X93810714Y-72307142D01*
X93725000Y-72264285D01*
X93510714Y-72264285D01*
X93425000Y-72221428D01*
X92996428Y-72607142D02*
X92996428Y-71707142D01*
X92910714Y-72264285D02*
X92653571Y-72607142D01*
X92653571Y-72007142D02*
X92996428Y-72350000D01*
X92139285Y-72607142D02*
X92225000Y-72564285D01*
X92267857Y-72521428D01*
X92310714Y-72435714D01*
X92310714Y-72178571D01*
X92267857Y-72092857D01*
X92225000Y-72050000D01*
X92139285Y-72007142D01*
X92010714Y-72007142D01*
X91925000Y-72050000D01*
X91882142Y-72092857D01*
X91839285Y-72178571D01*
X91839285Y-72435714D01*
X91882142Y-72521428D01*
X91925000Y-72564285D01*
X92010714Y-72607142D01*
X92139285Y-72607142D01*
X91067857Y-72007142D02*
X91067857Y-72607142D01*
X91453571Y-72007142D02*
X91453571Y-72478571D01*
X91410714Y-72564285D01*
X91325000Y-72607142D01*
X91196428Y-72607142D01*
X91110714Y-72564285D01*
X91067857Y-72521428D01*
X90767857Y-72007142D02*
X90425000Y-72007142D01*
X90639285Y-71707142D02*
X90639285Y-72478571D01*
X90596428Y-72564285D01*
X90510714Y-72607142D01*
X90425000Y-72607142D01*
X89139285Y-72135714D02*
X89010714Y-72178571D01*
X88967857Y-72221428D01*
X88925000Y-72307142D01*
X88925000Y-72435714D01*
X88967857Y-72521428D01*
X89010714Y-72564285D01*
X89096428Y-72607142D01*
X89439285Y-72607142D01*
X89439285Y-71707142D01*
X89139285Y-71707142D01*
X89053571Y-71750000D01*
X89010714Y-71792857D01*
X88967857Y-71878571D01*
X88967857Y-71964285D01*
X89010714Y-72050000D01*
X89053571Y-72092857D01*
X89139285Y-72135714D01*
X89439285Y-72135714D01*
X88410714Y-72607142D02*
X88496428Y-72564285D01*
X88539285Y-72521428D01*
X88582142Y-72435714D01*
X88582142Y-72178571D01*
X88539285Y-72092857D01*
X88496428Y-72050000D01*
X88410714Y-72007142D01*
X88282142Y-72007142D01*
X88196428Y-72050000D01*
X88153571Y-72092857D01*
X88110714Y-72178571D01*
X88110714Y-72435714D01*
X88153571Y-72521428D01*
X88196428Y-72564285D01*
X88282142Y-72607142D01*
X88410714Y-72607142D01*
X87339285Y-72607142D02*
X87339285Y-72135714D01*
X87382142Y-72050000D01*
X87467857Y-72007142D01*
X87639285Y-72007142D01*
X87725000Y-72050000D01*
X87339285Y-72564285D02*
X87425000Y-72607142D01*
X87639285Y-72607142D01*
X87725000Y-72564285D01*
X87767857Y-72478571D01*
X87767857Y-72392857D01*
X87725000Y-72307142D01*
X87639285Y-72264285D01*
X87425000Y-72264285D01*
X87339285Y-72221428D01*
X86910714Y-72607142D02*
X86910714Y-72007142D01*
X86910714Y-72178571D02*
X86867857Y-72092857D01*
X86825000Y-72050000D01*
X86739285Y-72007142D01*
X86653571Y-72007142D01*
X85967857Y-72607142D02*
X85967857Y-71707142D01*
X85967857Y-72564285D02*
X86053571Y-72607142D01*
X86225000Y-72607142D01*
X86310714Y-72564285D01*
X86353571Y-72521428D01*
X86396428Y-72435714D01*
X86396428Y-72178571D01*
X86353571Y-72092857D01*
X86310714Y-72050000D01*
X86225000Y-72007142D01*
X86053571Y-72007142D01*
X85967857Y-72050000D01*
X109967857Y-73507142D02*
X109967857Y-74235714D01*
X110010714Y-74321428D01*
X110053571Y-74364285D01*
X110139285Y-74407142D01*
X110267857Y-74407142D01*
X110353571Y-74364285D01*
X109967857Y-74064285D02*
X110053571Y-74107142D01*
X110225000Y-74107142D01*
X110310714Y-74064285D01*
X110353571Y-74021428D01*
X110396428Y-73935714D01*
X110396428Y-73678571D01*
X110353571Y-73592857D01*
X110310714Y-73550000D01*
X110225000Y-73507142D01*
X110053571Y-73507142D01*
X109967857Y-73550000D01*
X109539285Y-74107142D02*
X109539285Y-73507142D01*
X109539285Y-73207142D02*
X109582142Y-73250000D01*
X109539285Y-73292857D01*
X109496428Y-73250000D01*
X109539285Y-73207142D01*
X109539285Y-73292857D01*
X109239285Y-73507142D02*
X108896428Y-73507142D01*
X109110714Y-73207142D02*
X109110714Y-73978571D01*
X109067857Y-74064285D01*
X108982142Y-74107142D01*
X108896428Y-74107142D01*
X108596428Y-74107142D02*
X108596428Y-73207142D01*
X108210714Y-74107142D02*
X108210714Y-73635714D01*
X108253571Y-73550000D01*
X108339285Y-73507142D01*
X108467857Y-73507142D01*
X108553571Y-73550000D01*
X108596428Y-73592857D01*
X107396428Y-73507142D02*
X107396428Y-74107142D01*
X107782142Y-73507142D02*
X107782142Y-73978571D01*
X107739285Y-74064285D01*
X107653571Y-74107142D01*
X107525000Y-74107142D01*
X107439285Y-74064285D01*
X107396428Y-74021428D01*
X106967857Y-74107142D02*
X106967857Y-73207142D01*
X106967857Y-73550000D02*
X106882142Y-73507142D01*
X106710714Y-73507142D01*
X106625000Y-73550000D01*
X106582142Y-73592857D01*
X106539285Y-73678571D01*
X106539285Y-73935714D01*
X106582142Y-74021428D01*
X106625000Y-74064285D01*
X106710714Y-74107142D01*
X106882142Y-74107142D01*
X106967857Y-74064285D01*
X106153571Y-74021428D02*
X106110714Y-74064285D01*
X106153571Y-74107142D01*
X106196428Y-74064285D01*
X106153571Y-74021428D01*
X106153571Y-74107142D01*
X105339285Y-74064285D02*
X105425000Y-74107142D01*
X105596428Y-74107142D01*
X105682142Y-74064285D01*
X105725000Y-74021428D01*
X105767857Y-73935714D01*
X105767857Y-73678571D01*
X105725000Y-73592857D01*
X105682142Y-73550000D01*
X105596428Y-73507142D01*
X105425000Y-73507142D01*
X105339285Y-73550000D01*
X104825000Y-74107142D02*
X104910714Y-74064285D01*
X104953571Y-74021428D01*
X104996428Y-73935714D01*
X104996428Y-73678571D01*
X104953571Y-73592857D01*
X104910714Y-73550000D01*
X104825000Y-73507142D01*
X104696428Y-73507142D01*
X104610714Y-73550000D01*
X104567857Y-73592857D01*
X104525000Y-73678571D01*
X104525000Y-73935714D01*
X104567857Y-74021428D01*
X104610714Y-74064285D01*
X104696428Y-74107142D01*
X104825000Y-74107142D01*
X104139285Y-74107142D02*
X104139285Y-73507142D01*
X104139285Y-73592857D02*
X104096428Y-73550000D01*
X104010714Y-73507142D01*
X103882142Y-73507142D01*
X103796428Y-73550000D01*
X103753571Y-73635714D01*
X103753571Y-74107142D01*
X103753571Y-73635714D02*
X103710714Y-73550000D01*
X103625000Y-73507142D01*
X103496428Y-73507142D01*
X103410714Y-73550000D01*
X103367857Y-73635714D01*
X103367857Y-74107142D01*
X102296428Y-73164285D02*
X103067857Y-74321428D01*
X101996428Y-73507142D02*
X101996428Y-74407142D01*
X101996428Y-73550000D02*
X101910714Y-73507142D01*
X101739285Y-73507142D01*
X101653571Y-73550000D01*
X101610714Y-73592857D01*
X101567857Y-73678571D01*
X101567857Y-73935714D01*
X101610714Y-74021428D01*
X101653571Y-74064285D01*
X101739285Y-74107142D01*
X101910714Y-74107142D01*
X101996428Y-74064285D01*
X100839285Y-74064285D02*
X100925000Y-74107142D01*
X101096428Y-74107142D01*
X101182142Y-74064285D01*
X101225000Y-73978571D01*
X101225000Y-73635714D01*
X101182142Y-73550000D01*
X101096428Y-73507142D01*
X100925000Y-73507142D01*
X100839285Y-73550000D01*
X100796428Y-73635714D01*
X100796428Y-73721428D01*
X101225000Y-73807142D01*
X100025000Y-74107142D02*
X100025000Y-73207142D01*
X100025000Y-74064285D02*
X100110714Y-74107142D01*
X100282142Y-74107142D01*
X100367857Y-74064285D01*
X100410714Y-74021428D01*
X100453571Y-73935714D01*
X100453571Y-73678571D01*
X100410714Y-73592857D01*
X100367857Y-73550000D01*
X100282142Y-73507142D01*
X100110714Y-73507142D01*
X100025000Y-73550000D01*
X99596428Y-74107142D02*
X99596428Y-73507142D01*
X99596428Y-73678571D02*
X99553571Y-73592857D01*
X99510714Y-73550000D01*
X99425000Y-73507142D01*
X99339285Y-73507142D01*
X98910714Y-74107142D02*
X98996428Y-74064285D01*
X99039285Y-74021428D01*
X99082142Y-73935714D01*
X99082142Y-73678571D01*
X99039285Y-73592857D01*
X98996428Y-73550000D01*
X98910714Y-73507142D01*
X98782142Y-73507142D01*
X98696428Y-73550000D01*
X98653571Y-73592857D01*
X98610714Y-73678571D01*
X98610714Y-73935714D01*
X98653571Y-74021428D01*
X98696428Y-74064285D01*
X98782142Y-74107142D01*
X98910714Y-74107142D01*
X98225000Y-73764285D02*
X97539285Y-73764285D01*
X97110714Y-73507142D02*
X97110714Y-74278571D01*
X97153571Y-74364285D01*
X97239285Y-74407142D01*
X97282142Y-74407142D01*
X97110714Y-73207142D02*
X97153571Y-73250000D01*
X97110714Y-73292857D01*
X97067857Y-73250000D01*
X97110714Y-73207142D01*
X97110714Y-73292857D01*
X96296428Y-74107142D02*
X96296428Y-73635714D01*
X96339285Y-73550000D01*
X96425000Y-73507142D01*
X96596428Y-73507142D01*
X96682142Y-73550000D01*
X96296428Y-74064285D02*
X96382142Y-74107142D01*
X96596428Y-74107142D01*
X96682142Y-74064285D01*
X96725000Y-73978571D01*
X96725000Y-73892857D01*
X96682142Y-73807142D01*
X96596428Y-73764285D01*
X96382142Y-73764285D01*
X96296428Y-73721428D01*
X95953571Y-73507142D02*
X95739285Y-74107142D01*
X95525000Y-73507142D01*
X95182142Y-74107142D02*
X95182142Y-73507142D01*
X95182142Y-73207142D02*
X95225000Y-73250000D01*
X95182142Y-73292857D01*
X95139285Y-73250000D01*
X95182142Y-73207142D01*
X95182142Y-73292857D01*
X94410714Y-74064285D02*
X94496428Y-74107142D01*
X94667857Y-74107142D01*
X94753571Y-74064285D01*
X94796428Y-73978571D01*
X94796428Y-73635714D01*
X94753571Y-73550000D01*
X94667857Y-73507142D01*
X94496428Y-73507142D01*
X94410714Y-73550000D01*
X94367857Y-73635714D01*
X94367857Y-73721428D01*
X94796428Y-73807142D01*
X93982142Y-74107142D02*
X93982142Y-73507142D01*
X93982142Y-73678571D02*
X93939285Y-73592857D01*
X93896428Y-73550000D01*
X93810714Y-73507142D01*
X93725000Y-73507142D01*
X93553571Y-73507142D02*
X93210714Y-73507142D01*
X93425000Y-74107142D02*
X93425000Y-73335714D01*
X93382142Y-73250000D01*
X93296428Y-73207142D01*
X93210714Y-73207142D01*
X92267857Y-73164285D02*
X93039285Y-74321428D01*
X91582142Y-74107142D02*
X91582142Y-73207142D01*
X91582142Y-74064285D02*
X91667857Y-74107142D01*
X91839285Y-74107142D01*
X91925000Y-74064285D01*
X91967857Y-74021428D01*
X92010714Y-73935714D01*
X92010714Y-73678571D01*
X91967857Y-73592857D01*
X91925000Y-73550000D01*
X91839285Y-73507142D01*
X91667857Y-73507142D01*
X91582142Y-73550000D01*
X91196428Y-74064285D02*
X91110714Y-74107142D01*
X90939285Y-74107142D01*
X90853571Y-74064285D01*
X90810714Y-73978571D01*
X90810714Y-73935714D01*
X90853571Y-73850000D01*
X90939285Y-73807142D01*
X91067857Y-73807142D01*
X91153571Y-73764285D01*
X91196428Y-73678571D01*
X91196428Y-73635714D01*
X91153571Y-73550000D01*
X91067857Y-73507142D01*
X90939285Y-73507142D01*
X90853571Y-73550000D01*
X90039285Y-74064285D02*
X90125000Y-74107142D01*
X90296428Y-74107142D01*
X90382142Y-74064285D01*
X90425000Y-74021428D01*
X90467857Y-73935714D01*
X90467857Y-73678571D01*
X90425000Y-73592857D01*
X90382142Y-73550000D01*
X90296428Y-73507142D01*
X90125000Y-73507142D01*
X90039285Y-73550000D01*
X89267857Y-74107142D02*
X89267857Y-73635714D01*
X89310714Y-73550000D01*
X89396428Y-73507142D01*
X89567857Y-73507142D01*
X89653571Y-73550000D01*
X89267857Y-74064285D02*
X89353571Y-74107142D01*
X89567857Y-74107142D01*
X89653571Y-74064285D01*
X89696428Y-73978571D01*
X89696428Y-73892857D01*
X89653571Y-73807142D01*
X89567857Y-73764285D01*
X89353571Y-73764285D01*
X89267857Y-73721428D01*
X88839285Y-74107142D02*
X88839285Y-73507142D01*
X88839285Y-73678571D02*
X88796428Y-73592857D01*
X88753571Y-73550000D01*
X88667857Y-73507142D01*
X88582142Y-73507142D01*
X88410714Y-73507142D02*
X88067857Y-73507142D01*
X88282142Y-73207142D02*
X88282142Y-73978571D01*
X88239285Y-74064285D01*
X88153571Y-74107142D01*
X88067857Y-74107142D01*
X87767857Y-73507142D02*
X87767857Y-74407142D01*
X87767857Y-73550000D02*
X87682142Y-73507142D01*
X87510714Y-73507142D01*
X87425000Y-73550000D01*
X87382142Y-73592857D01*
X87339285Y-73678571D01*
X87339285Y-73935714D01*
X87382142Y-74021428D01*
X87425000Y-74064285D01*
X87510714Y-74107142D01*
X87682142Y-74107142D01*
X87767857Y-74064285D01*
X86567857Y-74064285D02*
X86653571Y-74107142D01*
X86825000Y-74107142D01*
X86910714Y-74064285D01*
X86953571Y-74021428D01*
X86996428Y-73935714D01*
X86996428Y-73678571D01*
X86953571Y-73592857D01*
X86910714Y-73550000D01*
X86825000Y-73507142D01*
X86653571Y-73507142D01*
X86567857Y-73550000D01*
X86182142Y-74107142D02*
X86182142Y-73207142D01*
X86182142Y-73550000D02*
X86096428Y-73507142D01*
X85925000Y-73507142D01*
X85839285Y-73550000D01*
X85796428Y-73592857D01*
X85753571Y-73678571D01*
X85753571Y-73935714D01*
X85796428Y-74021428D01*
X85839285Y-74064285D01*
X85925000Y-74107142D01*
X86096428Y-74107142D01*
X86182142Y-74064285D01*
D12*
X98120200Y-62611000D03*
D13*
X99120200Y-62611000D03*
X100120200Y-62611000D03*
X101120200Y-62611000D03*
X102120200Y-62611000D03*
X103120200Y-62611000D03*
X104120200Y-62611000D03*
X105120200Y-62611000D03*
D14*
X109677200Y-62712600D03*
D12*
X90119200Y-62636400D03*
D13*
X91119200Y-62636400D03*
X92119200Y-62636400D03*
X93119200Y-62636400D03*
X94119200Y-62636400D03*
X95119200Y-62636400D03*
X96119200Y-62636400D03*
D15*
X106680000Y-64516000D03*
X89535000Y-64516000D03*
M02*
