G04 #@! TF.GenerationSoftware,KiCad,Pcbnew,(5.1.5)-3*
G04 #@! TF.CreationDate,2021-01-12T18:04:03+01:00*
G04 #@! TF.ProjectId,ndsbreakoutboard,6e647362-7265-4616-9b6f-7574626f6172,1.0*
G04 #@! TF.SameCoordinates,Original*
G04 #@! TF.FileFunction,Copper,L2,Bot*
G04 #@! TF.FilePolarity,Positive*
%FSLAX46Y46*%
G04 Gerber Fmt 4.6, Leading zero omitted, Abs format (unit mm)*
G04 Created by KiCad (PCBNEW (5.1.5)-3) date 2021-01-12 18:04:03*
%MOMM*%
%LPD*%
G04 APERTURE LIST*
%ADD10R,0.850000X0.850000*%
%ADD11C,0.850000*%
%ADD12C,2.100000*%
%ADD13C,0.800000*%
%ADD14C,0.254000*%
G04 APERTURE END LIST*
D10*
X109423200Y-62966600D03*
D11*
X87198200Y-62966600D03*
X90322400Y-69596000D03*
X91617800Y-62966600D03*
X93319600Y-69596000D03*
X94691200Y-62966600D03*
X97739200Y-69596000D03*
X99314000Y-62915800D03*
X100418900Y-69596000D03*
X101930200Y-62966600D03*
X103098600Y-69545200D03*
X104546400Y-62966600D03*
X105778300Y-69545200D03*
X108458000Y-69545200D03*
D10*
X88646000Y-78638400D03*
X96164400Y-78638400D03*
D12*
X106680000Y-64516000D03*
X89535000Y-64516000D03*
D13*
X85648800Y-85064600D03*
X109702600Y-85191600D03*
D14*
G36*
X86374844Y-62290889D02*
G01*
X86258840Y-62464502D01*
X86178935Y-62657409D01*
X86138200Y-62862199D01*
X86138200Y-63071001D01*
X86178935Y-63275791D01*
X86258840Y-63468698D01*
X86374844Y-63642311D01*
X86522489Y-63789956D01*
X86696102Y-63905960D01*
X86889009Y-63985865D01*
X87093799Y-64026600D01*
X87302601Y-64026600D01*
X87507391Y-63985865D01*
X87700298Y-63905960D01*
X87873911Y-63789956D01*
X88021556Y-63642311D01*
X88137560Y-63468698D01*
X88217465Y-63275791D01*
X88258200Y-63071001D01*
X88258200Y-62862199D01*
X88217465Y-62657409D01*
X88137560Y-62464502D01*
X88021556Y-62290889D01*
X88020667Y-62290000D01*
X90795333Y-62290000D01*
X90794444Y-62290889D01*
X90678440Y-62464502D01*
X90598535Y-62657409D01*
X90557800Y-62862199D01*
X90557800Y-63071001D01*
X90581171Y-63188497D01*
X90333147Y-63022772D01*
X90026496Y-62895754D01*
X89700958Y-62831000D01*
X89369042Y-62831000D01*
X89043504Y-62895754D01*
X88736853Y-63022772D01*
X88460875Y-63207175D01*
X88226175Y-63441875D01*
X88041772Y-63717853D01*
X87914754Y-64024504D01*
X87850000Y-64350042D01*
X87850000Y-64681958D01*
X87914754Y-65007496D01*
X88041772Y-65314147D01*
X88226175Y-65590125D01*
X88460875Y-65824825D01*
X88736853Y-66009228D01*
X89043504Y-66136246D01*
X89369042Y-66201000D01*
X89700958Y-66201000D01*
X90026496Y-66136246D01*
X90333147Y-66009228D01*
X90609125Y-65824825D01*
X90843825Y-65590125D01*
X91028228Y-65314147D01*
X91155246Y-65007496D01*
X91220000Y-64681958D01*
X91220000Y-64350042D01*
X91155246Y-64024504D01*
X91102486Y-63897130D01*
X91115702Y-63905960D01*
X91308609Y-63985865D01*
X91513399Y-64026600D01*
X91722201Y-64026600D01*
X91926991Y-63985865D01*
X92119898Y-63905960D01*
X92293511Y-63789956D01*
X92441156Y-63642311D01*
X92557160Y-63468698D01*
X92637065Y-63275791D01*
X92677800Y-63071001D01*
X92677800Y-62862199D01*
X92637065Y-62657409D01*
X92557160Y-62464502D01*
X92441156Y-62290889D01*
X92440267Y-62290000D01*
X93868733Y-62290000D01*
X93867844Y-62290889D01*
X93751840Y-62464502D01*
X93671935Y-62657409D01*
X93631200Y-62862199D01*
X93631200Y-63071001D01*
X93671935Y-63275791D01*
X93751840Y-63468698D01*
X93867844Y-63642311D01*
X94015489Y-63789956D01*
X94189102Y-63905960D01*
X94382009Y-63985865D01*
X94586799Y-64026600D01*
X94795601Y-64026600D01*
X95000391Y-63985865D01*
X95193298Y-63905960D01*
X95366911Y-63789956D01*
X95514556Y-63642311D01*
X95630560Y-63468698D01*
X95710465Y-63275791D01*
X95751200Y-63071001D01*
X95751200Y-62862199D01*
X95710465Y-62657409D01*
X95630560Y-62464502D01*
X95514556Y-62290889D01*
X95513667Y-62290000D01*
X98457295Y-62290000D01*
X98374640Y-62413702D01*
X98294735Y-62606609D01*
X98254000Y-62811399D01*
X98254000Y-63020201D01*
X98294735Y-63224991D01*
X98374640Y-63417898D01*
X98490644Y-63591511D01*
X98638289Y-63739156D01*
X98811902Y-63855160D01*
X99004809Y-63935065D01*
X99209599Y-63975800D01*
X99418401Y-63975800D01*
X99623191Y-63935065D01*
X99816098Y-63855160D01*
X99989711Y-63739156D01*
X100137356Y-63591511D01*
X100253360Y-63417898D01*
X100333265Y-63224991D01*
X100374000Y-63020201D01*
X100374000Y-62811399D01*
X100333265Y-62606609D01*
X100253360Y-62413702D01*
X100170705Y-62290000D01*
X101107733Y-62290000D01*
X101106844Y-62290889D01*
X100990840Y-62464502D01*
X100910935Y-62657409D01*
X100870200Y-62862199D01*
X100870200Y-63071001D01*
X100910935Y-63275791D01*
X100990840Y-63468698D01*
X101106844Y-63642311D01*
X101254489Y-63789956D01*
X101428102Y-63905960D01*
X101621009Y-63985865D01*
X101825799Y-64026600D01*
X102034601Y-64026600D01*
X102239391Y-63985865D01*
X102432298Y-63905960D01*
X102605911Y-63789956D01*
X102753556Y-63642311D01*
X102869560Y-63468698D01*
X102949465Y-63275791D01*
X102990200Y-63071001D01*
X102990200Y-62862199D01*
X102949465Y-62657409D01*
X102869560Y-62464502D01*
X102753556Y-62290889D01*
X102752667Y-62290000D01*
X103723933Y-62290000D01*
X103723044Y-62290889D01*
X103607040Y-62464502D01*
X103527135Y-62657409D01*
X103486400Y-62862199D01*
X103486400Y-63071001D01*
X103527135Y-63275791D01*
X103607040Y-63468698D01*
X103723044Y-63642311D01*
X103870689Y-63789956D01*
X104044302Y-63905960D01*
X104237209Y-63985865D01*
X104441999Y-64026600D01*
X104650801Y-64026600D01*
X104855591Y-63985865D01*
X105048498Y-63905960D01*
X105131954Y-63850197D01*
X105059754Y-64024504D01*
X104995000Y-64350042D01*
X104995000Y-64681958D01*
X105059754Y-65007496D01*
X105186772Y-65314147D01*
X105371175Y-65590125D01*
X105605875Y-65824825D01*
X105881853Y-66009228D01*
X106188504Y-66136246D01*
X106514042Y-66201000D01*
X106845958Y-66201000D01*
X107171496Y-66136246D01*
X107478147Y-66009228D01*
X107754125Y-65824825D01*
X107988825Y-65590125D01*
X108173228Y-65314147D01*
X108300246Y-65007496D01*
X108365000Y-64681958D01*
X108365000Y-64350042D01*
X108300246Y-64024504D01*
X108173228Y-63717853D01*
X107988825Y-63441875D01*
X107938550Y-63391600D01*
X108360128Y-63391600D01*
X108372388Y-63516082D01*
X108408698Y-63635780D01*
X108467663Y-63746094D01*
X108547015Y-63842785D01*
X108643706Y-63922137D01*
X108754020Y-63981102D01*
X108873718Y-64017412D01*
X108998200Y-64029672D01*
X109137450Y-64026600D01*
X109296200Y-63867850D01*
X109296200Y-63093600D01*
X109550200Y-63093600D01*
X109550200Y-63867850D01*
X109708950Y-64026600D01*
X109848200Y-64029672D01*
X109972682Y-64017412D01*
X110092380Y-63981102D01*
X110202694Y-63922137D01*
X110299385Y-63842785D01*
X110378737Y-63746094D01*
X110437702Y-63635780D01*
X110474012Y-63516082D01*
X110486272Y-63391600D01*
X110483200Y-63252350D01*
X110324450Y-63093600D01*
X109550200Y-63093600D01*
X109296200Y-63093600D01*
X108521950Y-63093600D01*
X108363200Y-63252350D01*
X108360128Y-63391600D01*
X107938550Y-63391600D01*
X107754125Y-63207175D01*
X107478147Y-63022772D01*
X107171496Y-62895754D01*
X106845958Y-62831000D01*
X106514042Y-62831000D01*
X106188504Y-62895754D01*
X105881853Y-63022772D01*
X105605875Y-63207175D01*
X105572718Y-63240332D01*
X105606400Y-63071001D01*
X105606400Y-62862199D01*
X105565665Y-62657409D01*
X105485760Y-62464502D01*
X105369756Y-62290889D01*
X105368867Y-62290000D01*
X108412664Y-62290000D01*
X108408698Y-62297420D01*
X108372388Y-62417118D01*
X108360128Y-62541600D01*
X108363200Y-62680850D01*
X108521950Y-62839600D01*
X109296200Y-62839600D01*
X109296200Y-62819600D01*
X109550200Y-62819600D01*
X109550200Y-62839600D01*
X110324450Y-62839600D01*
X110483200Y-62680850D01*
X110486272Y-62541600D01*
X110474012Y-62417118D01*
X110437702Y-62297420D01*
X110433736Y-62290000D01*
X111065001Y-62290000D01*
X111065000Y-77919134D01*
X111027608Y-77931319D01*
X110969925Y-77956580D01*
X110911860Y-77981047D01*
X110903360Y-77985729D01*
X110688117Y-78106268D01*
X110636438Y-78142252D01*
X110584231Y-78177532D01*
X110576802Y-78183776D01*
X110389071Y-78343826D01*
X110345341Y-78389187D01*
X110301004Y-78433913D01*
X110294929Y-78441481D01*
X110141861Y-78634948D01*
X110107790Y-78687916D01*
X110072972Y-78740420D01*
X110068483Y-78749024D01*
X109955907Y-78968538D01*
X109932752Y-79027169D01*
X109908816Y-79085384D01*
X109906087Y-79094686D01*
X109906083Y-79094696D01*
X109906081Y-79094706D01*
X109838289Y-79331895D01*
X109826979Y-79393818D01*
X109814789Y-79455665D01*
X109813918Y-79465330D01*
X109793487Y-79711179D01*
X109794420Y-79774146D01*
X109794475Y-79837153D01*
X109795497Y-79846803D01*
X109823207Y-80091939D01*
X109836358Y-80153548D01*
X109848646Y-80215326D01*
X109851523Y-80224593D01*
X109926320Y-80459678D01*
X109951184Y-80517552D01*
X109975239Y-80575771D01*
X109979860Y-80584299D01*
X109979862Y-80584304D01*
X109979865Y-80584308D01*
X110098896Y-80800384D01*
X110134540Y-80852344D01*
X110169431Y-80904761D01*
X110175622Y-80912233D01*
X110334358Y-81101078D01*
X110379418Y-81145128D01*
X110423828Y-81189772D01*
X110431353Y-81195899D01*
X110623747Y-81350315D01*
X110676493Y-81384766D01*
X110728740Y-81419941D01*
X110737312Y-81424490D01*
X110956035Y-81538595D01*
X111014460Y-81562142D01*
X111064919Y-81583301D01*
X111064995Y-91380000D01*
X85145312Y-91380000D01*
X85149745Y-81517657D01*
X85195680Y-81502288D01*
X85253204Y-81476558D01*
X85311033Y-81451654D01*
X85319493Y-81446908D01*
X85319499Y-81446905D01*
X85319504Y-81446901D01*
X85527164Y-81328460D01*
X85578584Y-81292055D01*
X85630488Y-81256383D01*
X85637860Y-81250087D01*
X85637867Y-81250082D01*
X85637872Y-81250076D01*
X85818573Y-81093556D01*
X85861950Y-81047848D01*
X85905928Y-81002784D01*
X85911938Y-80995174D01*
X85911944Y-80995168D01*
X85911948Y-80995161D01*
X86058805Y-80806524D01*
X86092450Y-80753305D01*
X86126866Y-80700513D01*
X86131287Y-80691875D01*
X86238711Y-80478298D01*
X86261389Y-80419529D01*
X86284885Y-80361085D01*
X86287544Y-80351752D01*
X86351438Y-80121377D01*
X86362271Y-80059319D01*
X86373966Y-79997428D01*
X86374762Y-79987756D01*
X86392692Y-79749360D01*
X86391264Y-79686380D01*
X86390715Y-79623397D01*
X86389617Y-79613755D01*
X86360901Y-79376415D01*
X86347270Y-79314922D01*
X86334496Y-79253235D01*
X86331546Y-79243990D01*
X86257277Y-79016746D01*
X86231944Y-78959031D01*
X86207448Y-78901039D01*
X86202759Y-78892543D01*
X86085766Y-78684055D01*
X86049730Y-78632397D01*
X86014413Y-78580232D01*
X86008163Y-78572808D01*
X85852903Y-78391014D01*
X85807513Y-78347332D01*
X85762742Y-78303026D01*
X85755175Y-78296964D01*
X85755169Y-78296958D01*
X85755162Y-78296954D01*
X85649370Y-78213400D01*
X87582928Y-78213400D01*
X87582928Y-79063400D01*
X87595188Y-79187882D01*
X87631498Y-79307580D01*
X87690463Y-79417894D01*
X87769815Y-79514585D01*
X87866506Y-79593937D01*
X87976820Y-79652902D01*
X88096518Y-79689212D01*
X88221000Y-79701472D01*
X89071000Y-79701472D01*
X89195482Y-79689212D01*
X89315180Y-79652902D01*
X89425494Y-79593937D01*
X89522185Y-79514585D01*
X89601537Y-79417894D01*
X89660502Y-79307580D01*
X89696812Y-79187882D01*
X89709072Y-79063400D01*
X89709072Y-78213400D01*
X95101328Y-78213400D01*
X95101328Y-79063400D01*
X95113588Y-79187882D01*
X95149898Y-79307580D01*
X95208863Y-79417894D01*
X95288215Y-79514585D01*
X95384906Y-79593937D01*
X95495220Y-79652902D01*
X95614918Y-79689212D01*
X95739400Y-79701472D01*
X96589400Y-79701472D01*
X96713882Y-79689212D01*
X96833580Y-79652902D01*
X96943894Y-79593937D01*
X97040585Y-79514585D01*
X97119937Y-79417894D01*
X97178902Y-79307580D01*
X97215212Y-79187882D01*
X97227472Y-79063400D01*
X97227472Y-78213400D01*
X97215212Y-78088918D01*
X97178902Y-77969220D01*
X97119937Y-77858906D01*
X97040585Y-77762215D01*
X96943894Y-77682863D01*
X96833580Y-77623898D01*
X96713882Y-77587588D01*
X96589400Y-77575328D01*
X95739400Y-77575328D01*
X95614918Y-77587588D01*
X95495220Y-77623898D01*
X95384906Y-77682863D01*
X95288215Y-77762215D01*
X95208863Y-77858906D01*
X95149898Y-77969220D01*
X95113588Y-78088918D01*
X95101328Y-78213400D01*
X89709072Y-78213400D01*
X89696812Y-78088918D01*
X89660502Y-77969220D01*
X89601537Y-77858906D01*
X89522185Y-77762215D01*
X89425494Y-77682863D01*
X89315180Y-77623898D01*
X89195482Y-77587588D01*
X89071000Y-77575328D01*
X88221000Y-77575328D01*
X88096518Y-77587588D01*
X87976820Y-77623898D01*
X87866506Y-77682863D01*
X87769815Y-77762215D01*
X87690463Y-77858906D01*
X87631498Y-77969220D01*
X87595188Y-78088918D01*
X87582928Y-78213400D01*
X85649370Y-78213400D01*
X85567555Y-78148783D01*
X85514547Y-78114751D01*
X85462021Y-78079984D01*
X85453413Y-78075502D01*
X85240591Y-77966591D01*
X85182006Y-77943512D01*
X85150758Y-77930695D01*
X85150367Y-69491599D01*
X89262400Y-69491599D01*
X89262400Y-69700401D01*
X89303135Y-69905191D01*
X89383040Y-70098098D01*
X89499044Y-70271711D01*
X89646689Y-70419356D01*
X89820302Y-70535360D01*
X90013209Y-70615265D01*
X90217999Y-70656000D01*
X90426801Y-70656000D01*
X90631591Y-70615265D01*
X90824498Y-70535360D01*
X90998111Y-70419356D01*
X91145756Y-70271711D01*
X91261760Y-70098098D01*
X91341665Y-69905191D01*
X91382400Y-69700401D01*
X91382400Y-69491599D01*
X92259600Y-69491599D01*
X92259600Y-69700401D01*
X92300335Y-69905191D01*
X92380240Y-70098098D01*
X92496244Y-70271711D01*
X92643889Y-70419356D01*
X92817502Y-70535360D01*
X93010409Y-70615265D01*
X93215199Y-70656000D01*
X93424001Y-70656000D01*
X93628791Y-70615265D01*
X93821698Y-70535360D01*
X93995311Y-70419356D01*
X94142956Y-70271711D01*
X94258960Y-70098098D01*
X94338865Y-69905191D01*
X94379600Y-69700401D01*
X94379600Y-69491599D01*
X96679200Y-69491599D01*
X96679200Y-69700401D01*
X96719935Y-69905191D01*
X96799840Y-70098098D01*
X96915844Y-70271711D01*
X97063489Y-70419356D01*
X97237102Y-70535360D01*
X97430009Y-70615265D01*
X97634799Y-70656000D01*
X97843601Y-70656000D01*
X98048391Y-70615265D01*
X98241298Y-70535360D01*
X98414911Y-70419356D01*
X98562556Y-70271711D01*
X98678560Y-70098098D01*
X98758465Y-69905191D01*
X98799200Y-69700401D01*
X98799200Y-69491599D01*
X99358900Y-69491599D01*
X99358900Y-69700401D01*
X99399635Y-69905191D01*
X99479540Y-70098098D01*
X99595544Y-70271711D01*
X99743189Y-70419356D01*
X99916802Y-70535360D01*
X100109709Y-70615265D01*
X100314499Y-70656000D01*
X100523301Y-70656000D01*
X100728091Y-70615265D01*
X100920998Y-70535360D01*
X101094611Y-70419356D01*
X101242256Y-70271711D01*
X101358260Y-70098098D01*
X101438165Y-69905191D01*
X101478900Y-69700401D01*
X101478900Y-69491599D01*
X101468796Y-69440799D01*
X102038600Y-69440799D01*
X102038600Y-69649601D01*
X102079335Y-69854391D01*
X102159240Y-70047298D01*
X102275244Y-70220911D01*
X102422889Y-70368556D01*
X102596502Y-70484560D01*
X102789409Y-70564465D01*
X102994199Y-70605200D01*
X103203001Y-70605200D01*
X103407791Y-70564465D01*
X103600698Y-70484560D01*
X103774311Y-70368556D01*
X103921956Y-70220911D01*
X104037960Y-70047298D01*
X104117865Y-69854391D01*
X104158600Y-69649601D01*
X104158600Y-69440799D01*
X104718300Y-69440799D01*
X104718300Y-69649601D01*
X104759035Y-69854391D01*
X104838940Y-70047298D01*
X104954944Y-70220911D01*
X105102589Y-70368556D01*
X105276202Y-70484560D01*
X105469109Y-70564465D01*
X105673899Y-70605200D01*
X105882701Y-70605200D01*
X106087491Y-70564465D01*
X106280398Y-70484560D01*
X106454011Y-70368556D01*
X106601656Y-70220911D01*
X106717660Y-70047298D01*
X106797565Y-69854391D01*
X106838300Y-69649601D01*
X106838300Y-69440799D01*
X107398000Y-69440799D01*
X107398000Y-69649601D01*
X107438735Y-69854391D01*
X107518640Y-70047298D01*
X107634644Y-70220911D01*
X107782289Y-70368556D01*
X107955902Y-70484560D01*
X108148809Y-70564465D01*
X108353599Y-70605200D01*
X108562401Y-70605200D01*
X108767191Y-70564465D01*
X108960098Y-70484560D01*
X109133711Y-70368556D01*
X109281356Y-70220911D01*
X109397360Y-70047298D01*
X109477265Y-69854391D01*
X109518000Y-69649601D01*
X109518000Y-69440799D01*
X109477265Y-69236009D01*
X109397360Y-69043102D01*
X109281356Y-68869489D01*
X109133711Y-68721844D01*
X108960098Y-68605840D01*
X108767191Y-68525935D01*
X108562401Y-68485200D01*
X108353599Y-68485200D01*
X108148809Y-68525935D01*
X107955902Y-68605840D01*
X107782289Y-68721844D01*
X107634644Y-68869489D01*
X107518640Y-69043102D01*
X107438735Y-69236009D01*
X107398000Y-69440799D01*
X106838300Y-69440799D01*
X106797565Y-69236009D01*
X106717660Y-69043102D01*
X106601656Y-68869489D01*
X106454011Y-68721844D01*
X106280398Y-68605840D01*
X106087491Y-68525935D01*
X105882701Y-68485200D01*
X105673899Y-68485200D01*
X105469109Y-68525935D01*
X105276202Y-68605840D01*
X105102589Y-68721844D01*
X104954944Y-68869489D01*
X104838940Y-69043102D01*
X104759035Y-69236009D01*
X104718300Y-69440799D01*
X104158600Y-69440799D01*
X104117865Y-69236009D01*
X104037960Y-69043102D01*
X103921956Y-68869489D01*
X103774311Y-68721844D01*
X103600698Y-68605840D01*
X103407791Y-68525935D01*
X103203001Y-68485200D01*
X102994199Y-68485200D01*
X102789409Y-68525935D01*
X102596502Y-68605840D01*
X102422889Y-68721844D01*
X102275244Y-68869489D01*
X102159240Y-69043102D01*
X102079335Y-69236009D01*
X102038600Y-69440799D01*
X101468796Y-69440799D01*
X101438165Y-69286809D01*
X101358260Y-69093902D01*
X101242256Y-68920289D01*
X101094611Y-68772644D01*
X100920998Y-68656640D01*
X100728091Y-68576735D01*
X100523301Y-68536000D01*
X100314499Y-68536000D01*
X100109709Y-68576735D01*
X99916802Y-68656640D01*
X99743189Y-68772644D01*
X99595544Y-68920289D01*
X99479540Y-69093902D01*
X99399635Y-69286809D01*
X99358900Y-69491599D01*
X98799200Y-69491599D01*
X98758465Y-69286809D01*
X98678560Y-69093902D01*
X98562556Y-68920289D01*
X98414911Y-68772644D01*
X98241298Y-68656640D01*
X98048391Y-68576735D01*
X97843601Y-68536000D01*
X97634799Y-68536000D01*
X97430009Y-68576735D01*
X97237102Y-68656640D01*
X97063489Y-68772644D01*
X96915844Y-68920289D01*
X96799840Y-69093902D01*
X96719935Y-69286809D01*
X96679200Y-69491599D01*
X94379600Y-69491599D01*
X94338865Y-69286809D01*
X94258960Y-69093902D01*
X94142956Y-68920289D01*
X93995311Y-68772644D01*
X93821698Y-68656640D01*
X93628791Y-68576735D01*
X93424001Y-68536000D01*
X93215199Y-68536000D01*
X93010409Y-68576735D01*
X92817502Y-68656640D01*
X92643889Y-68772644D01*
X92496244Y-68920289D01*
X92380240Y-69093902D01*
X92300335Y-69286809D01*
X92259600Y-69491599D01*
X91382400Y-69491599D01*
X91341665Y-69286809D01*
X91261760Y-69093902D01*
X91145756Y-68920289D01*
X90998111Y-68772644D01*
X90824498Y-68656640D01*
X90631591Y-68576735D01*
X90426801Y-68536000D01*
X90217999Y-68536000D01*
X90013209Y-68576735D01*
X89820302Y-68656640D01*
X89646689Y-68772644D01*
X89499044Y-68920289D01*
X89383040Y-69093902D01*
X89303135Y-69286809D01*
X89262400Y-69491599D01*
X85150367Y-69491599D01*
X85150032Y-62290000D01*
X86375733Y-62290000D01*
X86374844Y-62290889D01*
G37*
X86374844Y-62290889D02*
X86258840Y-62464502D01*
X86178935Y-62657409D01*
X86138200Y-62862199D01*
X86138200Y-63071001D01*
X86178935Y-63275791D01*
X86258840Y-63468698D01*
X86374844Y-63642311D01*
X86522489Y-63789956D01*
X86696102Y-63905960D01*
X86889009Y-63985865D01*
X87093799Y-64026600D01*
X87302601Y-64026600D01*
X87507391Y-63985865D01*
X87700298Y-63905960D01*
X87873911Y-63789956D01*
X88021556Y-63642311D01*
X88137560Y-63468698D01*
X88217465Y-63275791D01*
X88258200Y-63071001D01*
X88258200Y-62862199D01*
X88217465Y-62657409D01*
X88137560Y-62464502D01*
X88021556Y-62290889D01*
X88020667Y-62290000D01*
X90795333Y-62290000D01*
X90794444Y-62290889D01*
X90678440Y-62464502D01*
X90598535Y-62657409D01*
X90557800Y-62862199D01*
X90557800Y-63071001D01*
X90581171Y-63188497D01*
X90333147Y-63022772D01*
X90026496Y-62895754D01*
X89700958Y-62831000D01*
X89369042Y-62831000D01*
X89043504Y-62895754D01*
X88736853Y-63022772D01*
X88460875Y-63207175D01*
X88226175Y-63441875D01*
X88041772Y-63717853D01*
X87914754Y-64024504D01*
X87850000Y-64350042D01*
X87850000Y-64681958D01*
X87914754Y-65007496D01*
X88041772Y-65314147D01*
X88226175Y-65590125D01*
X88460875Y-65824825D01*
X88736853Y-66009228D01*
X89043504Y-66136246D01*
X89369042Y-66201000D01*
X89700958Y-66201000D01*
X90026496Y-66136246D01*
X90333147Y-66009228D01*
X90609125Y-65824825D01*
X90843825Y-65590125D01*
X91028228Y-65314147D01*
X91155246Y-65007496D01*
X91220000Y-64681958D01*
X91220000Y-64350042D01*
X91155246Y-64024504D01*
X91102486Y-63897130D01*
X91115702Y-63905960D01*
X91308609Y-63985865D01*
X91513399Y-64026600D01*
X91722201Y-64026600D01*
X91926991Y-63985865D01*
X92119898Y-63905960D01*
X92293511Y-63789956D01*
X92441156Y-63642311D01*
X92557160Y-63468698D01*
X92637065Y-63275791D01*
X92677800Y-63071001D01*
X92677800Y-62862199D01*
X92637065Y-62657409D01*
X92557160Y-62464502D01*
X92441156Y-62290889D01*
X92440267Y-62290000D01*
X93868733Y-62290000D01*
X93867844Y-62290889D01*
X93751840Y-62464502D01*
X93671935Y-62657409D01*
X93631200Y-62862199D01*
X93631200Y-63071001D01*
X93671935Y-63275791D01*
X93751840Y-63468698D01*
X93867844Y-63642311D01*
X94015489Y-63789956D01*
X94189102Y-63905960D01*
X94382009Y-63985865D01*
X94586799Y-64026600D01*
X94795601Y-64026600D01*
X95000391Y-63985865D01*
X95193298Y-63905960D01*
X95366911Y-63789956D01*
X95514556Y-63642311D01*
X95630560Y-63468698D01*
X95710465Y-63275791D01*
X95751200Y-63071001D01*
X95751200Y-62862199D01*
X95710465Y-62657409D01*
X95630560Y-62464502D01*
X95514556Y-62290889D01*
X95513667Y-62290000D01*
X98457295Y-62290000D01*
X98374640Y-62413702D01*
X98294735Y-62606609D01*
X98254000Y-62811399D01*
X98254000Y-63020201D01*
X98294735Y-63224991D01*
X98374640Y-63417898D01*
X98490644Y-63591511D01*
X98638289Y-63739156D01*
X98811902Y-63855160D01*
X99004809Y-63935065D01*
X99209599Y-63975800D01*
X99418401Y-63975800D01*
X99623191Y-63935065D01*
X99816098Y-63855160D01*
X99989711Y-63739156D01*
X100137356Y-63591511D01*
X100253360Y-63417898D01*
X100333265Y-63224991D01*
X100374000Y-63020201D01*
X100374000Y-62811399D01*
X100333265Y-62606609D01*
X100253360Y-62413702D01*
X100170705Y-62290000D01*
X101107733Y-62290000D01*
X101106844Y-62290889D01*
X100990840Y-62464502D01*
X100910935Y-62657409D01*
X100870200Y-62862199D01*
X100870200Y-63071001D01*
X100910935Y-63275791D01*
X100990840Y-63468698D01*
X101106844Y-63642311D01*
X101254489Y-63789956D01*
X101428102Y-63905960D01*
X101621009Y-63985865D01*
X101825799Y-64026600D01*
X102034601Y-64026600D01*
X102239391Y-63985865D01*
X102432298Y-63905960D01*
X102605911Y-63789956D01*
X102753556Y-63642311D01*
X102869560Y-63468698D01*
X102949465Y-63275791D01*
X102990200Y-63071001D01*
X102990200Y-62862199D01*
X102949465Y-62657409D01*
X102869560Y-62464502D01*
X102753556Y-62290889D01*
X102752667Y-62290000D01*
X103723933Y-62290000D01*
X103723044Y-62290889D01*
X103607040Y-62464502D01*
X103527135Y-62657409D01*
X103486400Y-62862199D01*
X103486400Y-63071001D01*
X103527135Y-63275791D01*
X103607040Y-63468698D01*
X103723044Y-63642311D01*
X103870689Y-63789956D01*
X104044302Y-63905960D01*
X104237209Y-63985865D01*
X104441999Y-64026600D01*
X104650801Y-64026600D01*
X104855591Y-63985865D01*
X105048498Y-63905960D01*
X105131954Y-63850197D01*
X105059754Y-64024504D01*
X104995000Y-64350042D01*
X104995000Y-64681958D01*
X105059754Y-65007496D01*
X105186772Y-65314147D01*
X105371175Y-65590125D01*
X105605875Y-65824825D01*
X105881853Y-66009228D01*
X106188504Y-66136246D01*
X106514042Y-66201000D01*
X106845958Y-66201000D01*
X107171496Y-66136246D01*
X107478147Y-66009228D01*
X107754125Y-65824825D01*
X107988825Y-65590125D01*
X108173228Y-65314147D01*
X108300246Y-65007496D01*
X108365000Y-64681958D01*
X108365000Y-64350042D01*
X108300246Y-64024504D01*
X108173228Y-63717853D01*
X107988825Y-63441875D01*
X107938550Y-63391600D01*
X108360128Y-63391600D01*
X108372388Y-63516082D01*
X108408698Y-63635780D01*
X108467663Y-63746094D01*
X108547015Y-63842785D01*
X108643706Y-63922137D01*
X108754020Y-63981102D01*
X108873718Y-64017412D01*
X108998200Y-64029672D01*
X109137450Y-64026600D01*
X109296200Y-63867850D01*
X109296200Y-63093600D01*
X109550200Y-63093600D01*
X109550200Y-63867850D01*
X109708950Y-64026600D01*
X109848200Y-64029672D01*
X109972682Y-64017412D01*
X110092380Y-63981102D01*
X110202694Y-63922137D01*
X110299385Y-63842785D01*
X110378737Y-63746094D01*
X110437702Y-63635780D01*
X110474012Y-63516082D01*
X110486272Y-63391600D01*
X110483200Y-63252350D01*
X110324450Y-63093600D01*
X109550200Y-63093600D01*
X109296200Y-63093600D01*
X108521950Y-63093600D01*
X108363200Y-63252350D01*
X108360128Y-63391600D01*
X107938550Y-63391600D01*
X107754125Y-63207175D01*
X107478147Y-63022772D01*
X107171496Y-62895754D01*
X106845958Y-62831000D01*
X106514042Y-62831000D01*
X106188504Y-62895754D01*
X105881853Y-63022772D01*
X105605875Y-63207175D01*
X105572718Y-63240332D01*
X105606400Y-63071001D01*
X105606400Y-62862199D01*
X105565665Y-62657409D01*
X105485760Y-62464502D01*
X105369756Y-62290889D01*
X105368867Y-62290000D01*
X108412664Y-62290000D01*
X108408698Y-62297420D01*
X108372388Y-62417118D01*
X108360128Y-62541600D01*
X108363200Y-62680850D01*
X108521950Y-62839600D01*
X109296200Y-62839600D01*
X109296200Y-62819600D01*
X109550200Y-62819600D01*
X109550200Y-62839600D01*
X110324450Y-62839600D01*
X110483200Y-62680850D01*
X110486272Y-62541600D01*
X110474012Y-62417118D01*
X110437702Y-62297420D01*
X110433736Y-62290000D01*
X111065001Y-62290000D01*
X111065000Y-77919134D01*
X111027608Y-77931319D01*
X110969925Y-77956580D01*
X110911860Y-77981047D01*
X110903360Y-77985729D01*
X110688117Y-78106268D01*
X110636438Y-78142252D01*
X110584231Y-78177532D01*
X110576802Y-78183776D01*
X110389071Y-78343826D01*
X110345341Y-78389187D01*
X110301004Y-78433913D01*
X110294929Y-78441481D01*
X110141861Y-78634948D01*
X110107790Y-78687916D01*
X110072972Y-78740420D01*
X110068483Y-78749024D01*
X109955907Y-78968538D01*
X109932752Y-79027169D01*
X109908816Y-79085384D01*
X109906087Y-79094686D01*
X109906083Y-79094696D01*
X109906081Y-79094706D01*
X109838289Y-79331895D01*
X109826979Y-79393818D01*
X109814789Y-79455665D01*
X109813918Y-79465330D01*
X109793487Y-79711179D01*
X109794420Y-79774146D01*
X109794475Y-79837153D01*
X109795497Y-79846803D01*
X109823207Y-80091939D01*
X109836358Y-80153548D01*
X109848646Y-80215326D01*
X109851523Y-80224593D01*
X109926320Y-80459678D01*
X109951184Y-80517552D01*
X109975239Y-80575771D01*
X109979860Y-80584299D01*
X109979862Y-80584304D01*
X109979865Y-80584308D01*
X110098896Y-80800384D01*
X110134540Y-80852344D01*
X110169431Y-80904761D01*
X110175622Y-80912233D01*
X110334358Y-81101078D01*
X110379418Y-81145128D01*
X110423828Y-81189772D01*
X110431353Y-81195899D01*
X110623747Y-81350315D01*
X110676493Y-81384766D01*
X110728740Y-81419941D01*
X110737312Y-81424490D01*
X110956035Y-81538595D01*
X111014460Y-81562142D01*
X111064919Y-81583301D01*
X111064995Y-91380000D01*
X85145312Y-91380000D01*
X85149745Y-81517657D01*
X85195680Y-81502288D01*
X85253204Y-81476558D01*
X85311033Y-81451654D01*
X85319493Y-81446908D01*
X85319499Y-81446905D01*
X85319504Y-81446901D01*
X85527164Y-81328460D01*
X85578584Y-81292055D01*
X85630488Y-81256383D01*
X85637860Y-81250087D01*
X85637867Y-81250082D01*
X85637872Y-81250076D01*
X85818573Y-81093556D01*
X85861950Y-81047848D01*
X85905928Y-81002784D01*
X85911938Y-80995174D01*
X85911944Y-80995168D01*
X85911948Y-80995161D01*
X86058805Y-80806524D01*
X86092450Y-80753305D01*
X86126866Y-80700513D01*
X86131287Y-80691875D01*
X86238711Y-80478298D01*
X86261389Y-80419529D01*
X86284885Y-80361085D01*
X86287544Y-80351752D01*
X86351438Y-80121377D01*
X86362271Y-80059319D01*
X86373966Y-79997428D01*
X86374762Y-79987756D01*
X86392692Y-79749360D01*
X86391264Y-79686380D01*
X86390715Y-79623397D01*
X86389617Y-79613755D01*
X86360901Y-79376415D01*
X86347270Y-79314922D01*
X86334496Y-79253235D01*
X86331546Y-79243990D01*
X86257277Y-79016746D01*
X86231944Y-78959031D01*
X86207448Y-78901039D01*
X86202759Y-78892543D01*
X86085766Y-78684055D01*
X86049730Y-78632397D01*
X86014413Y-78580232D01*
X86008163Y-78572808D01*
X85852903Y-78391014D01*
X85807513Y-78347332D01*
X85762742Y-78303026D01*
X85755175Y-78296964D01*
X85755169Y-78296958D01*
X85755162Y-78296954D01*
X85649370Y-78213400D01*
X87582928Y-78213400D01*
X87582928Y-79063400D01*
X87595188Y-79187882D01*
X87631498Y-79307580D01*
X87690463Y-79417894D01*
X87769815Y-79514585D01*
X87866506Y-79593937D01*
X87976820Y-79652902D01*
X88096518Y-79689212D01*
X88221000Y-79701472D01*
X89071000Y-79701472D01*
X89195482Y-79689212D01*
X89315180Y-79652902D01*
X89425494Y-79593937D01*
X89522185Y-79514585D01*
X89601537Y-79417894D01*
X89660502Y-79307580D01*
X89696812Y-79187882D01*
X89709072Y-79063400D01*
X89709072Y-78213400D01*
X95101328Y-78213400D01*
X95101328Y-79063400D01*
X95113588Y-79187882D01*
X95149898Y-79307580D01*
X95208863Y-79417894D01*
X95288215Y-79514585D01*
X95384906Y-79593937D01*
X95495220Y-79652902D01*
X95614918Y-79689212D01*
X95739400Y-79701472D01*
X96589400Y-79701472D01*
X96713882Y-79689212D01*
X96833580Y-79652902D01*
X96943894Y-79593937D01*
X97040585Y-79514585D01*
X97119937Y-79417894D01*
X97178902Y-79307580D01*
X97215212Y-79187882D01*
X97227472Y-79063400D01*
X97227472Y-78213400D01*
X97215212Y-78088918D01*
X97178902Y-77969220D01*
X97119937Y-77858906D01*
X97040585Y-77762215D01*
X96943894Y-77682863D01*
X96833580Y-77623898D01*
X96713882Y-77587588D01*
X96589400Y-77575328D01*
X95739400Y-77575328D01*
X95614918Y-77587588D01*
X95495220Y-77623898D01*
X95384906Y-77682863D01*
X95288215Y-77762215D01*
X95208863Y-77858906D01*
X95149898Y-77969220D01*
X95113588Y-78088918D01*
X95101328Y-78213400D01*
X89709072Y-78213400D01*
X89696812Y-78088918D01*
X89660502Y-77969220D01*
X89601537Y-77858906D01*
X89522185Y-77762215D01*
X89425494Y-77682863D01*
X89315180Y-77623898D01*
X89195482Y-77587588D01*
X89071000Y-77575328D01*
X88221000Y-77575328D01*
X88096518Y-77587588D01*
X87976820Y-77623898D01*
X87866506Y-77682863D01*
X87769815Y-77762215D01*
X87690463Y-77858906D01*
X87631498Y-77969220D01*
X87595188Y-78088918D01*
X87582928Y-78213400D01*
X85649370Y-78213400D01*
X85567555Y-78148783D01*
X85514547Y-78114751D01*
X85462021Y-78079984D01*
X85453413Y-78075502D01*
X85240591Y-77966591D01*
X85182006Y-77943512D01*
X85150758Y-77930695D01*
X85150367Y-69491599D01*
X89262400Y-69491599D01*
X89262400Y-69700401D01*
X89303135Y-69905191D01*
X89383040Y-70098098D01*
X89499044Y-70271711D01*
X89646689Y-70419356D01*
X89820302Y-70535360D01*
X90013209Y-70615265D01*
X90217999Y-70656000D01*
X90426801Y-70656000D01*
X90631591Y-70615265D01*
X90824498Y-70535360D01*
X90998111Y-70419356D01*
X91145756Y-70271711D01*
X91261760Y-70098098D01*
X91341665Y-69905191D01*
X91382400Y-69700401D01*
X91382400Y-69491599D01*
X92259600Y-69491599D01*
X92259600Y-69700401D01*
X92300335Y-69905191D01*
X92380240Y-70098098D01*
X92496244Y-70271711D01*
X92643889Y-70419356D01*
X92817502Y-70535360D01*
X93010409Y-70615265D01*
X93215199Y-70656000D01*
X93424001Y-70656000D01*
X93628791Y-70615265D01*
X93821698Y-70535360D01*
X93995311Y-70419356D01*
X94142956Y-70271711D01*
X94258960Y-70098098D01*
X94338865Y-69905191D01*
X94379600Y-69700401D01*
X94379600Y-69491599D01*
X96679200Y-69491599D01*
X96679200Y-69700401D01*
X96719935Y-69905191D01*
X96799840Y-70098098D01*
X96915844Y-70271711D01*
X97063489Y-70419356D01*
X97237102Y-70535360D01*
X97430009Y-70615265D01*
X97634799Y-70656000D01*
X97843601Y-70656000D01*
X98048391Y-70615265D01*
X98241298Y-70535360D01*
X98414911Y-70419356D01*
X98562556Y-70271711D01*
X98678560Y-70098098D01*
X98758465Y-69905191D01*
X98799200Y-69700401D01*
X98799200Y-69491599D01*
X99358900Y-69491599D01*
X99358900Y-69700401D01*
X99399635Y-69905191D01*
X99479540Y-70098098D01*
X99595544Y-70271711D01*
X99743189Y-70419356D01*
X99916802Y-70535360D01*
X100109709Y-70615265D01*
X100314499Y-70656000D01*
X100523301Y-70656000D01*
X100728091Y-70615265D01*
X100920998Y-70535360D01*
X101094611Y-70419356D01*
X101242256Y-70271711D01*
X101358260Y-70098098D01*
X101438165Y-69905191D01*
X101478900Y-69700401D01*
X101478900Y-69491599D01*
X101468796Y-69440799D01*
X102038600Y-69440799D01*
X102038600Y-69649601D01*
X102079335Y-69854391D01*
X102159240Y-70047298D01*
X102275244Y-70220911D01*
X102422889Y-70368556D01*
X102596502Y-70484560D01*
X102789409Y-70564465D01*
X102994199Y-70605200D01*
X103203001Y-70605200D01*
X103407791Y-70564465D01*
X103600698Y-70484560D01*
X103774311Y-70368556D01*
X103921956Y-70220911D01*
X104037960Y-70047298D01*
X104117865Y-69854391D01*
X104158600Y-69649601D01*
X104158600Y-69440799D01*
X104718300Y-69440799D01*
X104718300Y-69649601D01*
X104759035Y-69854391D01*
X104838940Y-70047298D01*
X104954944Y-70220911D01*
X105102589Y-70368556D01*
X105276202Y-70484560D01*
X105469109Y-70564465D01*
X105673899Y-70605200D01*
X105882701Y-70605200D01*
X106087491Y-70564465D01*
X106280398Y-70484560D01*
X106454011Y-70368556D01*
X106601656Y-70220911D01*
X106717660Y-70047298D01*
X106797565Y-69854391D01*
X106838300Y-69649601D01*
X106838300Y-69440799D01*
X107398000Y-69440799D01*
X107398000Y-69649601D01*
X107438735Y-69854391D01*
X107518640Y-70047298D01*
X107634644Y-70220911D01*
X107782289Y-70368556D01*
X107955902Y-70484560D01*
X108148809Y-70564465D01*
X108353599Y-70605200D01*
X108562401Y-70605200D01*
X108767191Y-70564465D01*
X108960098Y-70484560D01*
X109133711Y-70368556D01*
X109281356Y-70220911D01*
X109397360Y-70047298D01*
X109477265Y-69854391D01*
X109518000Y-69649601D01*
X109518000Y-69440799D01*
X109477265Y-69236009D01*
X109397360Y-69043102D01*
X109281356Y-68869489D01*
X109133711Y-68721844D01*
X108960098Y-68605840D01*
X108767191Y-68525935D01*
X108562401Y-68485200D01*
X108353599Y-68485200D01*
X108148809Y-68525935D01*
X107955902Y-68605840D01*
X107782289Y-68721844D01*
X107634644Y-68869489D01*
X107518640Y-69043102D01*
X107438735Y-69236009D01*
X107398000Y-69440799D01*
X106838300Y-69440799D01*
X106797565Y-69236009D01*
X106717660Y-69043102D01*
X106601656Y-68869489D01*
X106454011Y-68721844D01*
X106280398Y-68605840D01*
X106087491Y-68525935D01*
X105882701Y-68485200D01*
X105673899Y-68485200D01*
X105469109Y-68525935D01*
X105276202Y-68605840D01*
X105102589Y-68721844D01*
X104954944Y-68869489D01*
X104838940Y-69043102D01*
X104759035Y-69236009D01*
X104718300Y-69440799D01*
X104158600Y-69440799D01*
X104117865Y-69236009D01*
X104037960Y-69043102D01*
X103921956Y-68869489D01*
X103774311Y-68721844D01*
X103600698Y-68605840D01*
X103407791Y-68525935D01*
X103203001Y-68485200D01*
X102994199Y-68485200D01*
X102789409Y-68525935D01*
X102596502Y-68605840D01*
X102422889Y-68721844D01*
X102275244Y-68869489D01*
X102159240Y-69043102D01*
X102079335Y-69236009D01*
X102038600Y-69440799D01*
X101468796Y-69440799D01*
X101438165Y-69286809D01*
X101358260Y-69093902D01*
X101242256Y-68920289D01*
X101094611Y-68772644D01*
X100920998Y-68656640D01*
X100728091Y-68576735D01*
X100523301Y-68536000D01*
X100314499Y-68536000D01*
X100109709Y-68576735D01*
X99916802Y-68656640D01*
X99743189Y-68772644D01*
X99595544Y-68920289D01*
X99479540Y-69093902D01*
X99399635Y-69286809D01*
X99358900Y-69491599D01*
X98799200Y-69491599D01*
X98758465Y-69286809D01*
X98678560Y-69093902D01*
X98562556Y-68920289D01*
X98414911Y-68772644D01*
X98241298Y-68656640D01*
X98048391Y-68576735D01*
X97843601Y-68536000D01*
X97634799Y-68536000D01*
X97430009Y-68576735D01*
X97237102Y-68656640D01*
X97063489Y-68772644D01*
X96915844Y-68920289D01*
X96799840Y-69093902D01*
X96719935Y-69286809D01*
X96679200Y-69491599D01*
X94379600Y-69491599D01*
X94338865Y-69286809D01*
X94258960Y-69093902D01*
X94142956Y-68920289D01*
X93995311Y-68772644D01*
X93821698Y-68656640D01*
X93628791Y-68576735D01*
X93424001Y-68536000D01*
X93215199Y-68536000D01*
X93010409Y-68576735D01*
X92817502Y-68656640D01*
X92643889Y-68772644D01*
X92496244Y-68920289D01*
X92380240Y-69093902D01*
X92300335Y-69286809D01*
X92259600Y-69491599D01*
X91382400Y-69491599D01*
X91341665Y-69286809D01*
X91261760Y-69093902D01*
X91145756Y-68920289D01*
X90998111Y-68772644D01*
X90824498Y-68656640D01*
X90631591Y-68576735D01*
X90426801Y-68536000D01*
X90217999Y-68536000D01*
X90013209Y-68576735D01*
X89820302Y-68656640D01*
X89646689Y-68772644D01*
X89499044Y-68920289D01*
X89383040Y-69093902D01*
X89303135Y-69286809D01*
X89262400Y-69491599D01*
X85150367Y-69491599D01*
X85150032Y-62290000D01*
X86375733Y-62290000D01*
X86374844Y-62290889D01*
M02*
