M48
; DRILL file {KiCad (5.1.5)-3} date 19/02/2021 13:32:39
; FORMAT={-:-/ absolute / inch / decimal}
; #@! TF.CreationDate,2021-02-19T13:32:39+01:00
; #@! TF.GenerationSoftware,Kicad,Pcbnew,(5.1.5)-3
; #@! TF.FileFunction,Plated,1,2,PTH
FMAT,2
INCH
T1C0.0157
T2C0.0197
T3C0.0787
%
G90
G05
T1
X3.372Y-3.349
X4.319Y-3.354
T2
X4.1645Y-2.738
X4.013Y-2.479
X3.556Y-2.74
X3.91Y-2.477
X3.848Y-2.74
X3.674Y-2.74
X3.433Y-2.479
X3.9535Y-2.74
X3.607Y-2.479
X4.308Y-2.479
X4.116Y-2.479
X3.786Y-3.096
X3.728Y-2.479
X4.059Y-2.738
X3.49Y-3.096
X4.27Y-2.738
T3
X3.525Y-2.54
X4.2Y-2.54
T0
M30
