G04 #@! TF.GenerationSoftware,KiCad,Pcbnew,(5.1.5)-3*
G04 #@! TF.CreationDate,2021-01-08T13:27:43+01:00*
G04 #@! TF.ProjectId,ndsbreakoutboard,6e647362-7265-4616-9b6f-7574626f6172,1.0*
G04 #@! TF.SameCoordinates,Original*
G04 #@! TF.FileFunction,Copper,L1,Top*
G04 #@! TF.FilePolarity,Positive*
%FSLAX46Y46*%
G04 Gerber Fmt 4.6, Leading zero omitted, Abs format (unit mm)*
G04 Created by KiCad (PCBNEW (5.1.5)-3) date 2021-01-08 13:27:43*
%MOMM*%
%LPD*%
G04 APERTURE LIST*
%ADD10R,1.000000X5.000000*%
%ADD11R,1.000000X3.800000*%
%ADD12C,0.850000*%
%ADD13O,0.850000X0.850000*%
%ADD14R,0.850000X0.850000*%
%ADD15C,2.100000*%
%ADD16C,0.250000*%
%ADD17C,0.254000*%
G04 APERTURE END LIST*
D10*
X85670001Y-88655000D03*
D11*
X87170001Y-88055000D03*
X90170001Y-88055000D03*
X88670001Y-88055000D03*
X94670001Y-88055000D03*
X93170001Y-88055000D03*
X91670001Y-88055000D03*
D10*
X96170001Y-88655000D03*
D11*
X100670001Y-88055000D03*
X99170001Y-88055000D03*
X102170001Y-88055000D03*
X103670001Y-88055000D03*
X105170001Y-88055000D03*
X97670001Y-88055000D03*
X108170001Y-88055000D03*
X106670001Y-88055000D03*
D10*
X109670001Y-88655000D03*
D12*
X98120200Y-62611000D03*
D13*
X99120200Y-62611000D03*
X100120200Y-62611000D03*
X101120200Y-62611000D03*
X102120200Y-62611000D03*
X103120200Y-62611000D03*
X104120200Y-62611000D03*
X105120200Y-62611000D03*
D14*
X109677200Y-62712600D03*
D12*
X90119200Y-62636400D03*
D13*
X91119200Y-62636400D03*
X92119200Y-62636400D03*
X93119200Y-62636400D03*
X94119200Y-62636400D03*
X95119200Y-62636400D03*
X96119200Y-62636400D03*
D15*
X106680000Y-64516000D03*
X89535000Y-64516000D03*
D16*
X97670001Y-63061199D02*
X98120200Y-62611000D01*
X97670001Y-88055000D02*
X97670001Y-63061199D01*
X99170001Y-62660801D02*
X99120200Y-62611000D01*
X99170001Y-88055000D02*
X99170001Y-62660801D01*
X100120200Y-63212040D02*
X100120200Y-62611000D01*
X100120200Y-85355199D02*
X100120200Y-63212040D01*
X100670001Y-85905000D02*
X100120200Y-85355199D01*
X100670001Y-88055000D02*
X100670001Y-85905000D01*
X102170001Y-88055000D02*
X102170001Y-84237601D01*
X101120200Y-83187800D02*
X101120200Y-62611000D01*
X102170001Y-84237601D02*
X101120200Y-83187800D01*
X103670001Y-88055000D02*
X103670001Y-83096001D01*
X102120200Y-81546200D02*
X102120200Y-62611000D01*
X103670001Y-83096001D02*
X102120200Y-81546200D01*
X105170001Y-88055000D02*
X105170001Y-82411601D01*
X103120200Y-80361800D02*
X103120200Y-62611000D01*
X105170001Y-82411601D02*
X103120200Y-80361800D01*
X104120200Y-63991202D02*
X104120200Y-63212040D01*
X104120200Y-63212040D02*
X104120200Y-62611000D01*
X106670001Y-66541003D02*
X104120200Y-63991202D01*
X106670001Y-88055000D02*
X106670001Y-66541003D01*
X106810002Y-62611000D02*
X105721240Y-62611000D01*
X105721240Y-62611000D02*
X105120200Y-62611000D01*
X108170001Y-63970999D02*
X106810002Y-62611000D01*
X108170001Y-88055000D02*
X108170001Y-63970999D01*
X109670001Y-62719799D02*
X109677200Y-62712600D01*
X109670001Y-88655000D02*
X109670001Y-62719799D01*
X85695002Y-91430001D02*
X85670001Y-91405000D01*
X109670001Y-90655000D02*
X108895000Y-91430001D01*
X85670001Y-91405000D02*
X85670001Y-88655000D01*
X108895000Y-91430001D02*
X85695002Y-91430001D01*
X109670001Y-88655000D02*
X109670001Y-90655000D01*
X89444200Y-62636400D02*
X90119200Y-62636400D01*
X89379598Y-62636400D02*
X89444200Y-62636400D01*
X87170001Y-64845997D02*
X89379598Y-62636400D01*
X87170001Y-88055000D02*
X87170001Y-64845997D01*
X91119200Y-83455801D02*
X91119200Y-63237440D01*
X91119200Y-63237440D02*
X91119200Y-62636400D01*
X88670001Y-85905000D02*
X91119200Y-83455801D01*
X88670001Y-88055000D02*
X88670001Y-85905000D01*
X91869201Y-62886399D02*
X92119200Y-62636400D01*
X91869201Y-83342210D02*
X91869201Y-62886399D01*
X90170001Y-88055000D02*
X90170001Y-85041410D01*
X90170001Y-85041410D02*
X91869201Y-83342210D01*
X93119200Y-82728621D02*
X93119200Y-62636400D01*
X91670001Y-88055000D02*
X91670001Y-84177820D01*
X91670001Y-84177820D02*
X93119200Y-82728621D01*
X94119200Y-84955801D02*
X94119200Y-62636400D01*
X93170001Y-88055000D02*
X93170001Y-85905000D01*
X93170001Y-85905000D02*
X94119200Y-84955801D01*
X95119200Y-85455801D02*
X95119200Y-63237440D01*
X94670001Y-85905000D02*
X95119200Y-85455801D01*
X95119200Y-63237440D02*
X95119200Y-62636400D01*
X94670001Y-88055000D02*
X94670001Y-85905000D01*
X96170001Y-62687201D02*
X96119200Y-62636400D01*
X96170001Y-88655000D02*
X96170001Y-62687201D01*
D17*
G36*
X108617200Y-62426850D02*
G01*
X108775950Y-62585600D01*
X109550200Y-62585600D01*
X109550200Y-62565600D01*
X109804200Y-62565600D01*
X109804200Y-62585600D01*
X110578450Y-62585600D01*
X110737200Y-62426850D01*
X110740219Y-62290000D01*
X111065001Y-62290000D01*
X111065000Y-77919134D01*
X111027608Y-77931319D01*
X110969925Y-77956580D01*
X110911860Y-77981047D01*
X110903360Y-77985729D01*
X110688117Y-78106268D01*
X110636438Y-78142252D01*
X110584231Y-78177532D01*
X110576802Y-78183776D01*
X110389071Y-78343826D01*
X110345341Y-78389187D01*
X110301004Y-78433913D01*
X110294929Y-78441481D01*
X110141861Y-78634948D01*
X110107790Y-78687916D01*
X110072972Y-78740420D01*
X110068483Y-78749024D01*
X109955907Y-78968538D01*
X109932752Y-79027169D01*
X109908816Y-79085384D01*
X109906087Y-79094686D01*
X109906083Y-79094696D01*
X109906081Y-79094706D01*
X109838289Y-79331895D01*
X109826979Y-79393818D01*
X109814789Y-79455665D01*
X109813918Y-79465330D01*
X109793487Y-79711179D01*
X109794420Y-79774146D01*
X109794475Y-79837153D01*
X109795497Y-79846803D01*
X109823207Y-80091939D01*
X109836358Y-80153548D01*
X109848646Y-80215326D01*
X109851523Y-80224593D01*
X109926320Y-80459678D01*
X109951184Y-80517552D01*
X109975239Y-80575771D01*
X109979860Y-80584299D01*
X109979862Y-80584304D01*
X109979865Y-80584308D01*
X110098896Y-80800384D01*
X110134540Y-80852344D01*
X110169431Y-80904761D01*
X110175622Y-80912233D01*
X110334358Y-81101078D01*
X110379418Y-81145128D01*
X110423828Y-81189772D01*
X110431353Y-81195899D01*
X110623747Y-81350315D01*
X110676493Y-81384766D01*
X110728740Y-81419941D01*
X110737312Y-81424490D01*
X110956035Y-81538595D01*
X111014460Y-81562142D01*
X111064919Y-81583301D01*
X111064995Y-91380000D01*
X110765321Y-91380000D01*
X110795813Y-91279482D01*
X110808073Y-91155000D01*
X110805001Y-88940750D01*
X110646251Y-88782000D01*
X109797001Y-88782000D01*
X109797001Y-88802000D01*
X109543001Y-88802000D01*
X109543001Y-88782000D01*
X109523001Y-88782000D01*
X109523001Y-88528000D01*
X109543001Y-88528000D01*
X109543001Y-85678750D01*
X109797001Y-85678750D01*
X109797001Y-88528000D01*
X110646251Y-88528000D01*
X110805001Y-88369250D01*
X110808073Y-86155000D01*
X110795813Y-86030518D01*
X110759503Y-85910820D01*
X110700538Y-85800506D01*
X110621186Y-85703815D01*
X110524495Y-85624463D01*
X110414181Y-85565498D01*
X110294483Y-85529188D01*
X110170001Y-85516928D01*
X109955751Y-85520000D01*
X109797001Y-85678750D01*
X109543001Y-85678750D01*
X109384251Y-85520000D01*
X109170001Y-85516928D01*
X109045519Y-85529188D01*
X108930001Y-85564230D01*
X108930001Y-64008321D01*
X108933677Y-63970998D01*
X108930001Y-63933675D01*
X108930001Y-63933666D01*
X108919004Y-63822013D01*
X108875547Y-63678752D01*
X108849630Y-63630265D01*
X108848123Y-63627445D01*
X108897706Y-63668137D01*
X109008020Y-63727102D01*
X109127718Y-63763412D01*
X109252200Y-63775672D01*
X109391450Y-63772600D01*
X109550200Y-63613850D01*
X109550200Y-62839600D01*
X109804200Y-62839600D01*
X109804200Y-63613850D01*
X109962950Y-63772600D01*
X110102200Y-63775672D01*
X110226682Y-63763412D01*
X110346380Y-63727102D01*
X110456694Y-63668137D01*
X110553385Y-63588785D01*
X110632737Y-63492094D01*
X110691702Y-63381780D01*
X110728012Y-63262082D01*
X110740272Y-63137600D01*
X110737200Y-62998350D01*
X110578450Y-62839600D01*
X109804200Y-62839600D01*
X109550200Y-62839600D01*
X108775950Y-62839600D01*
X108617200Y-62998350D01*
X108614128Y-63137600D01*
X108626388Y-63262082D01*
X108662698Y-63381780D01*
X108670867Y-63397063D01*
X107563803Y-62290000D01*
X108614181Y-62290000D01*
X108617200Y-62426850D01*
G37*
X108617200Y-62426850D02*
X108775950Y-62585600D01*
X109550200Y-62585600D01*
X109550200Y-62565600D01*
X109804200Y-62565600D01*
X109804200Y-62585600D01*
X110578450Y-62585600D01*
X110737200Y-62426850D01*
X110740219Y-62290000D01*
X111065001Y-62290000D01*
X111065000Y-77919134D01*
X111027608Y-77931319D01*
X110969925Y-77956580D01*
X110911860Y-77981047D01*
X110903360Y-77985729D01*
X110688117Y-78106268D01*
X110636438Y-78142252D01*
X110584231Y-78177532D01*
X110576802Y-78183776D01*
X110389071Y-78343826D01*
X110345341Y-78389187D01*
X110301004Y-78433913D01*
X110294929Y-78441481D01*
X110141861Y-78634948D01*
X110107790Y-78687916D01*
X110072972Y-78740420D01*
X110068483Y-78749024D01*
X109955907Y-78968538D01*
X109932752Y-79027169D01*
X109908816Y-79085384D01*
X109906087Y-79094686D01*
X109906083Y-79094696D01*
X109906081Y-79094706D01*
X109838289Y-79331895D01*
X109826979Y-79393818D01*
X109814789Y-79455665D01*
X109813918Y-79465330D01*
X109793487Y-79711179D01*
X109794420Y-79774146D01*
X109794475Y-79837153D01*
X109795497Y-79846803D01*
X109823207Y-80091939D01*
X109836358Y-80153548D01*
X109848646Y-80215326D01*
X109851523Y-80224593D01*
X109926320Y-80459678D01*
X109951184Y-80517552D01*
X109975239Y-80575771D01*
X109979860Y-80584299D01*
X109979862Y-80584304D01*
X109979865Y-80584308D01*
X110098896Y-80800384D01*
X110134540Y-80852344D01*
X110169431Y-80904761D01*
X110175622Y-80912233D01*
X110334358Y-81101078D01*
X110379418Y-81145128D01*
X110423828Y-81189772D01*
X110431353Y-81195899D01*
X110623747Y-81350315D01*
X110676493Y-81384766D01*
X110728740Y-81419941D01*
X110737312Y-81424490D01*
X110956035Y-81538595D01*
X111014460Y-81562142D01*
X111064919Y-81583301D01*
X111064995Y-91380000D01*
X110765321Y-91380000D01*
X110795813Y-91279482D01*
X110808073Y-91155000D01*
X110805001Y-88940750D01*
X110646251Y-88782000D01*
X109797001Y-88782000D01*
X109797001Y-88802000D01*
X109543001Y-88802000D01*
X109543001Y-88782000D01*
X109523001Y-88782000D01*
X109523001Y-88528000D01*
X109543001Y-88528000D01*
X109543001Y-85678750D01*
X109797001Y-85678750D01*
X109797001Y-88528000D01*
X110646251Y-88528000D01*
X110805001Y-88369250D01*
X110808073Y-86155000D01*
X110795813Y-86030518D01*
X110759503Y-85910820D01*
X110700538Y-85800506D01*
X110621186Y-85703815D01*
X110524495Y-85624463D01*
X110414181Y-85565498D01*
X110294483Y-85529188D01*
X110170001Y-85516928D01*
X109955751Y-85520000D01*
X109797001Y-85678750D01*
X109543001Y-85678750D01*
X109384251Y-85520000D01*
X109170001Y-85516928D01*
X109045519Y-85529188D01*
X108930001Y-85564230D01*
X108930001Y-64008321D01*
X108933677Y-63970998D01*
X108930001Y-63933675D01*
X108930001Y-63933666D01*
X108919004Y-63822013D01*
X108875547Y-63678752D01*
X108849630Y-63630265D01*
X108848123Y-63627445D01*
X108897706Y-63668137D01*
X109008020Y-63727102D01*
X109127718Y-63763412D01*
X109252200Y-63775672D01*
X109391450Y-63772600D01*
X109550200Y-63613850D01*
X109550200Y-62839600D01*
X109804200Y-62839600D01*
X109804200Y-63613850D01*
X109962950Y-63772600D01*
X110102200Y-63775672D01*
X110226682Y-63763412D01*
X110346380Y-63727102D01*
X110456694Y-63668137D01*
X110553385Y-63588785D01*
X110632737Y-63492094D01*
X110691702Y-63381780D01*
X110728012Y-63262082D01*
X110740272Y-63137600D01*
X110737200Y-62998350D01*
X110578450Y-62839600D01*
X109804200Y-62839600D01*
X109550200Y-62839600D01*
X108775950Y-62839600D01*
X108617200Y-62998350D01*
X108614128Y-63137600D01*
X108626388Y-63262082D01*
X108662698Y-63381780D01*
X108670867Y-63397063D01*
X107563803Y-62290000D01*
X108614181Y-62290000D01*
X108617200Y-62426850D01*
G36*
X86658999Y-64282198D02*
G01*
X86630001Y-64305996D01*
X86606203Y-64334994D01*
X86606202Y-64334995D01*
X86535027Y-64421721D01*
X86464455Y-64553751D01*
X86420999Y-64697012D01*
X86406325Y-64845997D01*
X86410002Y-64883330D01*
X86410001Y-85564230D01*
X86294483Y-85529188D01*
X86170001Y-85516928D01*
X85955751Y-85520000D01*
X85797001Y-85678750D01*
X85797001Y-88528000D01*
X85817001Y-88528000D01*
X85817001Y-88782000D01*
X85797001Y-88782000D01*
X85797001Y-88802000D01*
X85543001Y-88802000D01*
X85543001Y-88782000D01*
X85523001Y-88782000D01*
X85523001Y-88528000D01*
X85543001Y-88528000D01*
X85543001Y-85678750D01*
X85384251Y-85520000D01*
X85170001Y-85516928D01*
X85147946Y-85519100D01*
X85149745Y-81517657D01*
X85195680Y-81502288D01*
X85253204Y-81476558D01*
X85311033Y-81451654D01*
X85319493Y-81446908D01*
X85319499Y-81446905D01*
X85319504Y-81446901D01*
X85527164Y-81328460D01*
X85578584Y-81292055D01*
X85630488Y-81256383D01*
X85637860Y-81250087D01*
X85637867Y-81250082D01*
X85637872Y-81250076D01*
X85818573Y-81093556D01*
X85861950Y-81047848D01*
X85905928Y-81002784D01*
X85911938Y-80995174D01*
X85911944Y-80995168D01*
X85911948Y-80995161D01*
X86058805Y-80806524D01*
X86092450Y-80753305D01*
X86126866Y-80700513D01*
X86131287Y-80691875D01*
X86238711Y-80478298D01*
X86261389Y-80419529D01*
X86284885Y-80361085D01*
X86287544Y-80351752D01*
X86351438Y-80121377D01*
X86362271Y-80059319D01*
X86373966Y-79997428D01*
X86374762Y-79987756D01*
X86392692Y-79749360D01*
X86391264Y-79686380D01*
X86390715Y-79623397D01*
X86389617Y-79613755D01*
X86360901Y-79376415D01*
X86347270Y-79314922D01*
X86334496Y-79253235D01*
X86331546Y-79243990D01*
X86257277Y-79016746D01*
X86231944Y-78959031D01*
X86207448Y-78901039D01*
X86202759Y-78892543D01*
X86085766Y-78684055D01*
X86049730Y-78632397D01*
X86014413Y-78580232D01*
X86008163Y-78572808D01*
X85852903Y-78391014D01*
X85807513Y-78347332D01*
X85762742Y-78303026D01*
X85755175Y-78296964D01*
X85755169Y-78296958D01*
X85755162Y-78296954D01*
X85567555Y-78148783D01*
X85514547Y-78114751D01*
X85462021Y-78079984D01*
X85453413Y-78075502D01*
X85240591Y-77966591D01*
X85182006Y-77943512D01*
X85150758Y-77930695D01*
X85150032Y-62290000D01*
X88651196Y-62290000D01*
X86658999Y-64282198D01*
G37*
X86658999Y-64282198D02*
X86630001Y-64305996D01*
X86606203Y-64334994D01*
X86606202Y-64334995D01*
X86535027Y-64421721D01*
X86464455Y-64553751D01*
X86420999Y-64697012D01*
X86406325Y-64845997D01*
X86410002Y-64883330D01*
X86410001Y-85564230D01*
X86294483Y-85529188D01*
X86170001Y-85516928D01*
X85955751Y-85520000D01*
X85797001Y-85678750D01*
X85797001Y-88528000D01*
X85817001Y-88528000D01*
X85817001Y-88782000D01*
X85797001Y-88782000D01*
X85797001Y-88802000D01*
X85543001Y-88802000D01*
X85543001Y-88782000D01*
X85523001Y-88782000D01*
X85523001Y-88528000D01*
X85543001Y-88528000D01*
X85543001Y-85678750D01*
X85384251Y-85520000D01*
X85170001Y-85516928D01*
X85147946Y-85519100D01*
X85149745Y-81517657D01*
X85195680Y-81502288D01*
X85253204Y-81476558D01*
X85311033Y-81451654D01*
X85319493Y-81446908D01*
X85319499Y-81446905D01*
X85319504Y-81446901D01*
X85527164Y-81328460D01*
X85578584Y-81292055D01*
X85630488Y-81256383D01*
X85637860Y-81250087D01*
X85637867Y-81250082D01*
X85637872Y-81250076D01*
X85818573Y-81093556D01*
X85861950Y-81047848D01*
X85905928Y-81002784D01*
X85911938Y-80995174D01*
X85911944Y-80995168D01*
X85911948Y-80995161D01*
X86058805Y-80806524D01*
X86092450Y-80753305D01*
X86126866Y-80700513D01*
X86131287Y-80691875D01*
X86238711Y-80478298D01*
X86261389Y-80419529D01*
X86284885Y-80361085D01*
X86287544Y-80351752D01*
X86351438Y-80121377D01*
X86362271Y-80059319D01*
X86373966Y-79997428D01*
X86374762Y-79987756D01*
X86392692Y-79749360D01*
X86391264Y-79686380D01*
X86390715Y-79623397D01*
X86389617Y-79613755D01*
X86360901Y-79376415D01*
X86347270Y-79314922D01*
X86334496Y-79253235D01*
X86331546Y-79243990D01*
X86257277Y-79016746D01*
X86231944Y-78959031D01*
X86207448Y-78901039D01*
X86202759Y-78892543D01*
X86085766Y-78684055D01*
X86049730Y-78632397D01*
X86014413Y-78580232D01*
X86008163Y-78572808D01*
X85852903Y-78391014D01*
X85807513Y-78347332D01*
X85762742Y-78303026D01*
X85755175Y-78296964D01*
X85755169Y-78296958D01*
X85755162Y-78296954D01*
X85567555Y-78148783D01*
X85514547Y-78114751D01*
X85462021Y-78079984D01*
X85453413Y-78075502D01*
X85240591Y-77966591D01*
X85182006Y-77943512D01*
X85150758Y-77930695D01*
X85150032Y-62290000D01*
X88651196Y-62290000D01*
X86658999Y-64282198D01*
M02*
