G04 #@! TF.GenerationSoftware,KiCad,Pcbnew,(5.1.5)-3*
G04 #@! TF.CreationDate,2021-02-19T13:32:03+01:00*
G04 #@! TF.ProjectId,ndsbreakoutboard,6e647362-7265-4616-9b6f-7574626f6172,1.0*
G04 #@! TF.SameCoordinates,Original*
G04 #@! TF.FileFunction,Soldermask,Bot*
G04 #@! TF.FilePolarity,Negative*
%FSLAX46Y46*%
G04 Gerber Fmt 4.6, Leading zero omitted, Abs format (unit mm)*
G04 Created by KiCad (PCBNEW (5.1.5)-3) date 2021-02-19 13:32:03*
%MOMM*%
%LPD*%
G04 APERTURE LIST*
%ADD10C,0.100000*%
G04 APERTURE END LIST*
D10*
G36*
X89122000Y-79114400D02*
G01*
X88170000Y-79114400D01*
X88170000Y-78162400D01*
X89122000Y-78162400D01*
X89122000Y-79114400D01*
G37*
G36*
X96640400Y-79114400D02*
G01*
X95688400Y-79114400D01*
X95688400Y-78162400D01*
X96640400Y-78162400D01*
X96640400Y-79114400D01*
G37*
G36*
X93458443Y-69138292D02*
G01*
X93509188Y-69159311D01*
X93545070Y-69174174D01*
X93623032Y-69226267D01*
X93689333Y-69292568D01*
X93741426Y-69370530D01*
X93741426Y-69370531D01*
X93777308Y-69457157D01*
X93795600Y-69549117D01*
X93795600Y-69642883D01*
X93777308Y-69734843D01*
X93762468Y-69770669D01*
X93741426Y-69821470D01*
X93689333Y-69899432D01*
X93623032Y-69965733D01*
X93545070Y-70017826D01*
X93536924Y-70021200D01*
X93458443Y-70053708D01*
X93366483Y-70072000D01*
X93272717Y-70072000D01*
X93180757Y-70053708D01*
X93102276Y-70021200D01*
X93094130Y-70017826D01*
X93016168Y-69965733D01*
X92949867Y-69899432D01*
X92897774Y-69821470D01*
X92876732Y-69770669D01*
X92861892Y-69734843D01*
X92843600Y-69642883D01*
X92843600Y-69549117D01*
X92861892Y-69457157D01*
X92897774Y-69370531D01*
X92897774Y-69370530D01*
X92949867Y-69292568D01*
X93016168Y-69226267D01*
X93094130Y-69174174D01*
X93130012Y-69159311D01*
X93180757Y-69138292D01*
X93272717Y-69120000D01*
X93366483Y-69120000D01*
X93458443Y-69138292D01*
G37*
G36*
X100557743Y-69138292D02*
G01*
X100608488Y-69159311D01*
X100644370Y-69174174D01*
X100722332Y-69226267D01*
X100788633Y-69292568D01*
X100840726Y-69370530D01*
X100840726Y-69370531D01*
X100876608Y-69457157D01*
X100894900Y-69549117D01*
X100894900Y-69642883D01*
X100876608Y-69734843D01*
X100861768Y-69770669D01*
X100840726Y-69821470D01*
X100788633Y-69899432D01*
X100722332Y-69965733D01*
X100644370Y-70017826D01*
X100636224Y-70021200D01*
X100557743Y-70053708D01*
X100465783Y-70072000D01*
X100372017Y-70072000D01*
X100280057Y-70053708D01*
X100201576Y-70021200D01*
X100193430Y-70017826D01*
X100115468Y-69965733D01*
X100049167Y-69899432D01*
X99997074Y-69821470D01*
X99976032Y-69770669D01*
X99961192Y-69734843D01*
X99942900Y-69642883D01*
X99942900Y-69549117D01*
X99961192Y-69457157D01*
X99997074Y-69370531D01*
X99997074Y-69370530D01*
X100049167Y-69292568D01*
X100115468Y-69226267D01*
X100193430Y-69174174D01*
X100229312Y-69159311D01*
X100280057Y-69138292D01*
X100372017Y-69120000D01*
X100465783Y-69120000D01*
X100557743Y-69138292D01*
G37*
G36*
X97878043Y-69138292D02*
G01*
X97928788Y-69159311D01*
X97964670Y-69174174D01*
X98042632Y-69226267D01*
X98108933Y-69292568D01*
X98161026Y-69370530D01*
X98161026Y-69370531D01*
X98196908Y-69457157D01*
X98215200Y-69549117D01*
X98215200Y-69642883D01*
X98196908Y-69734843D01*
X98182068Y-69770669D01*
X98161026Y-69821470D01*
X98108933Y-69899432D01*
X98042632Y-69965733D01*
X97964670Y-70017826D01*
X97956524Y-70021200D01*
X97878043Y-70053708D01*
X97786083Y-70072000D01*
X97692317Y-70072000D01*
X97600357Y-70053708D01*
X97521876Y-70021200D01*
X97513730Y-70017826D01*
X97435768Y-69965733D01*
X97369467Y-69899432D01*
X97317374Y-69821470D01*
X97296332Y-69770669D01*
X97281492Y-69734843D01*
X97263200Y-69642883D01*
X97263200Y-69549117D01*
X97281492Y-69457157D01*
X97317374Y-69370531D01*
X97317374Y-69370530D01*
X97369467Y-69292568D01*
X97435768Y-69226267D01*
X97513730Y-69174174D01*
X97549612Y-69159311D01*
X97600357Y-69138292D01*
X97692317Y-69120000D01*
X97786083Y-69120000D01*
X97878043Y-69138292D01*
G37*
G36*
X90461243Y-69138292D02*
G01*
X90511988Y-69159311D01*
X90547870Y-69174174D01*
X90625832Y-69226267D01*
X90692133Y-69292568D01*
X90744226Y-69370530D01*
X90744226Y-69370531D01*
X90780108Y-69457157D01*
X90798400Y-69549117D01*
X90798400Y-69642883D01*
X90780108Y-69734843D01*
X90765268Y-69770669D01*
X90744226Y-69821470D01*
X90692133Y-69899432D01*
X90625832Y-69965733D01*
X90547870Y-70017826D01*
X90539724Y-70021200D01*
X90461243Y-70053708D01*
X90369283Y-70072000D01*
X90275517Y-70072000D01*
X90183557Y-70053708D01*
X90105076Y-70021200D01*
X90096930Y-70017826D01*
X90018968Y-69965733D01*
X89952667Y-69899432D01*
X89900574Y-69821470D01*
X89879532Y-69770669D01*
X89864692Y-69734843D01*
X89846400Y-69642883D01*
X89846400Y-69549117D01*
X89864692Y-69457157D01*
X89900574Y-69370531D01*
X89900574Y-69370530D01*
X89952667Y-69292568D01*
X90018968Y-69226267D01*
X90096930Y-69174174D01*
X90132812Y-69159311D01*
X90183557Y-69138292D01*
X90275517Y-69120000D01*
X90369283Y-69120000D01*
X90461243Y-69138292D01*
G37*
G36*
X108596843Y-69087492D02*
G01*
X108647588Y-69108511D01*
X108683470Y-69123374D01*
X108761432Y-69175467D01*
X108827733Y-69241768D01*
X108879826Y-69319730D01*
X108879826Y-69319731D01*
X108915708Y-69406357D01*
X108934000Y-69498317D01*
X108934000Y-69592083D01*
X108915708Y-69684043D01*
X108894689Y-69734788D01*
X108879826Y-69770670D01*
X108827733Y-69848632D01*
X108761432Y-69914933D01*
X108683470Y-69967026D01*
X108647588Y-69981889D01*
X108596843Y-70002908D01*
X108504883Y-70021200D01*
X108411117Y-70021200D01*
X108319157Y-70002908D01*
X108268412Y-69981889D01*
X108232530Y-69967026D01*
X108154568Y-69914933D01*
X108088267Y-69848632D01*
X108036174Y-69770670D01*
X108021311Y-69734788D01*
X108000292Y-69684043D01*
X107982000Y-69592083D01*
X107982000Y-69498317D01*
X108000292Y-69406357D01*
X108036174Y-69319731D01*
X108036174Y-69319730D01*
X108088267Y-69241768D01*
X108154568Y-69175467D01*
X108232530Y-69123374D01*
X108268412Y-69108511D01*
X108319157Y-69087492D01*
X108411117Y-69069200D01*
X108504883Y-69069200D01*
X108596843Y-69087492D01*
G37*
G36*
X105917143Y-69087492D02*
G01*
X105967888Y-69108511D01*
X106003770Y-69123374D01*
X106081732Y-69175467D01*
X106148033Y-69241768D01*
X106200126Y-69319730D01*
X106200126Y-69319731D01*
X106236008Y-69406357D01*
X106254300Y-69498317D01*
X106254300Y-69592083D01*
X106236008Y-69684043D01*
X106214989Y-69734788D01*
X106200126Y-69770670D01*
X106148033Y-69848632D01*
X106081732Y-69914933D01*
X106003770Y-69967026D01*
X105967888Y-69981889D01*
X105917143Y-70002908D01*
X105825183Y-70021200D01*
X105731417Y-70021200D01*
X105639457Y-70002908D01*
X105588712Y-69981889D01*
X105552830Y-69967026D01*
X105474868Y-69914933D01*
X105408567Y-69848632D01*
X105356474Y-69770670D01*
X105341611Y-69734788D01*
X105320592Y-69684043D01*
X105302300Y-69592083D01*
X105302300Y-69498317D01*
X105320592Y-69406357D01*
X105356474Y-69319731D01*
X105356474Y-69319730D01*
X105408567Y-69241768D01*
X105474868Y-69175467D01*
X105552830Y-69123374D01*
X105588712Y-69108511D01*
X105639457Y-69087492D01*
X105731417Y-69069200D01*
X105825183Y-69069200D01*
X105917143Y-69087492D01*
G37*
G36*
X103237443Y-69087492D02*
G01*
X103288188Y-69108511D01*
X103324070Y-69123374D01*
X103402032Y-69175467D01*
X103468333Y-69241768D01*
X103520426Y-69319730D01*
X103520426Y-69319731D01*
X103556308Y-69406357D01*
X103574600Y-69498317D01*
X103574600Y-69592083D01*
X103556308Y-69684043D01*
X103535289Y-69734788D01*
X103520426Y-69770670D01*
X103468333Y-69848632D01*
X103402032Y-69914933D01*
X103324070Y-69967026D01*
X103288188Y-69981889D01*
X103237443Y-70002908D01*
X103145483Y-70021200D01*
X103051717Y-70021200D01*
X102959757Y-70002908D01*
X102909012Y-69981889D01*
X102873130Y-69967026D01*
X102795168Y-69914933D01*
X102728867Y-69848632D01*
X102676774Y-69770670D01*
X102661911Y-69734788D01*
X102640892Y-69684043D01*
X102622600Y-69592083D01*
X102622600Y-69498317D01*
X102640892Y-69406357D01*
X102676774Y-69319731D01*
X102676774Y-69319730D01*
X102728867Y-69241768D01*
X102795168Y-69175467D01*
X102873130Y-69123374D01*
X102909012Y-69108511D01*
X102959757Y-69087492D01*
X103051717Y-69069200D01*
X103145483Y-69069200D01*
X103237443Y-69087492D01*
G37*
G36*
X94830043Y-62508892D02*
G01*
X94880788Y-62529911D01*
X94916670Y-62544774D01*
X94994632Y-62596867D01*
X95060933Y-62663168D01*
X95113026Y-62741130D01*
X95113026Y-62741131D01*
X95148908Y-62827757D01*
X95167200Y-62919717D01*
X95167200Y-63013483D01*
X95148908Y-63105443D01*
X95134068Y-63141269D01*
X95113026Y-63192070D01*
X95060933Y-63270032D01*
X94994632Y-63336333D01*
X94916670Y-63388426D01*
X94908524Y-63391800D01*
X94830043Y-63424308D01*
X94738083Y-63442600D01*
X94644317Y-63442600D01*
X94552357Y-63424308D01*
X94473876Y-63391800D01*
X94465730Y-63388426D01*
X94387768Y-63336333D01*
X94321467Y-63270032D01*
X94269374Y-63192070D01*
X94248332Y-63141269D01*
X94233492Y-63105443D01*
X94215200Y-63013483D01*
X94215200Y-62919717D01*
X94233492Y-62827757D01*
X94269374Y-62741131D01*
X94269374Y-62741130D01*
X94321467Y-62663168D01*
X94387768Y-62596867D01*
X94465730Y-62544774D01*
X94501612Y-62529911D01*
X94552357Y-62508892D01*
X94644317Y-62490600D01*
X94738083Y-62490600D01*
X94830043Y-62508892D01*
G37*
G36*
X104685243Y-62508892D02*
G01*
X104735988Y-62529911D01*
X104771870Y-62544774D01*
X104849832Y-62596867D01*
X104916133Y-62663168D01*
X104968226Y-62741130D01*
X104968226Y-62741131D01*
X105004108Y-62827757D01*
X105022400Y-62919717D01*
X105022400Y-63013483D01*
X105004108Y-63105443D01*
X104989268Y-63141269D01*
X104968226Y-63192070D01*
X104916133Y-63270032D01*
X104849832Y-63336333D01*
X104771870Y-63388426D01*
X104763724Y-63391800D01*
X104685243Y-63424308D01*
X104593283Y-63442600D01*
X104499517Y-63442600D01*
X104407557Y-63424308D01*
X104329076Y-63391800D01*
X104320930Y-63388426D01*
X104242968Y-63336333D01*
X104176667Y-63270032D01*
X104124574Y-63192070D01*
X104103532Y-63141269D01*
X104088692Y-63105443D01*
X104070400Y-63013483D01*
X104070400Y-62919717D01*
X104088692Y-62827757D01*
X104124574Y-62741131D01*
X104124574Y-62741130D01*
X104176667Y-62663168D01*
X104242968Y-62596867D01*
X104320930Y-62544774D01*
X104356812Y-62529911D01*
X104407557Y-62508892D01*
X104499517Y-62490600D01*
X104593283Y-62490600D01*
X104685243Y-62508892D01*
G37*
G36*
X102069043Y-62508892D02*
G01*
X102119788Y-62529911D01*
X102155670Y-62544774D01*
X102233632Y-62596867D01*
X102299933Y-62663168D01*
X102352026Y-62741130D01*
X102352026Y-62741131D01*
X102387908Y-62827757D01*
X102406200Y-62919717D01*
X102406200Y-63013483D01*
X102387908Y-63105443D01*
X102373068Y-63141269D01*
X102352026Y-63192070D01*
X102299933Y-63270032D01*
X102233632Y-63336333D01*
X102155670Y-63388426D01*
X102147524Y-63391800D01*
X102069043Y-63424308D01*
X101977083Y-63442600D01*
X101883317Y-63442600D01*
X101791357Y-63424308D01*
X101712876Y-63391800D01*
X101704730Y-63388426D01*
X101626768Y-63336333D01*
X101560467Y-63270032D01*
X101508374Y-63192070D01*
X101487332Y-63141269D01*
X101472492Y-63105443D01*
X101454200Y-63013483D01*
X101454200Y-62919717D01*
X101472492Y-62827757D01*
X101508374Y-62741131D01*
X101508374Y-62741130D01*
X101560467Y-62663168D01*
X101626768Y-62596867D01*
X101704730Y-62544774D01*
X101740612Y-62529911D01*
X101791357Y-62508892D01*
X101883317Y-62490600D01*
X101977083Y-62490600D01*
X102069043Y-62508892D01*
G37*
G36*
X91756643Y-62508892D02*
G01*
X91807388Y-62529911D01*
X91843270Y-62544774D01*
X91921232Y-62596867D01*
X91987533Y-62663168D01*
X92039626Y-62741130D01*
X92039626Y-62741131D01*
X92075508Y-62827757D01*
X92093800Y-62919717D01*
X92093800Y-63013483D01*
X92075508Y-63105443D01*
X92060668Y-63141269D01*
X92039626Y-63192070D01*
X91987533Y-63270032D01*
X91921232Y-63336333D01*
X91843270Y-63388426D01*
X91835124Y-63391800D01*
X91756643Y-63424308D01*
X91664683Y-63442600D01*
X91570917Y-63442600D01*
X91478957Y-63424308D01*
X91400476Y-63391800D01*
X91392330Y-63388426D01*
X91314368Y-63336333D01*
X91248067Y-63270032D01*
X91195974Y-63192070D01*
X91174932Y-63141269D01*
X91160092Y-63105443D01*
X91141800Y-63013483D01*
X91141800Y-62919717D01*
X91160092Y-62827757D01*
X91195974Y-62741131D01*
X91195974Y-62741130D01*
X91248067Y-62663168D01*
X91314368Y-62596867D01*
X91392330Y-62544774D01*
X91428212Y-62529911D01*
X91478957Y-62508892D01*
X91570917Y-62490600D01*
X91664683Y-62490600D01*
X91756643Y-62508892D01*
G37*
G36*
X109899200Y-63442600D02*
G01*
X108947200Y-63442600D01*
X108947200Y-62490600D01*
X109899200Y-62490600D01*
X109899200Y-63442600D01*
G37*
G36*
X87337043Y-62508892D02*
G01*
X87387788Y-62529911D01*
X87423670Y-62544774D01*
X87501632Y-62596867D01*
X87567933Y-62663168D01*
X87620026Y-62741130D01*
X87620026Y-62741131D01*
X87655908Y-62827757D01*
X87674200Y-62919717D01*
X87674200Y-63013483D01*
X87655908Y-63105443D01*
X87641068Y-63141269D01*
X87620026Y-63192070D01*
X87567933Y-63270032D01*
X87501632Y-63336333D01*
X87423670Y-63388426D01*
X87415524Y-63391800D01*
X87337043Y-63424308D01*
X87245083Y-63442600D01*
X87151317Y-63442600D01*
X87059357Y-63424308D01*
X86980876Y-63391800D01*
X86972730Y-63388426D01*
X86894768Y-63336333D01*
X86828467Y-63270032D01*
X86776374Y-63192070D01*
X86755332Y-63141269D01*
X86740492Y-63105443D01*
X86722200Y-63013483D01*
X86722200Y-62919717D01*
X86740492Y-62827757D01*
X86776374Y-62741131D01*
X86776374Y-62741130D01*
X86828467Y-62663168D01*
X86894768Y-62596867D01*
X86972730Y-62544774D01*
X87008612Y-62529911D01*
X87059357Y-62508892D01*
X87151317Y-62490600D01*
X87245083Y-62490600D01*
X87337043Y-62508892D01*
G37*
G36*
X99452843Y-62458092D02*
G01*
X99503588Y-62479111D01*
X99539470Y-62493974D01*
X99617432Y-62546067D01*
X99683733Y-62612368D01*
X99735826Y-62690330D01*
X99735826Y-62690331D01*
X99771708Y-62776957D01*
X99790000Y-62868917D01*
X99790000Y-62962683D01*
X99771708Y-63054643D01*
X99750689Y-63105388D01*
X99735826Y-63141270D01*
X99683733Y-63219232D01*
X99617432Y-63285533D01*
X99539470Y-63337626D01*
X99503588Y-63352489D01*
X99452843Y-63373508D01*
X99360883Y-63391800D01*
X99267117Y-63391800D01*
X99175157Y-63373508D01*
X99124412Y-63352489D01*
X99088530Y-63337626D01*
X99010568Y-63285533D01*
X98944267Y-63219232D01*
X98892174Y-63141270D01*
X98877311Y-63105388D01*
X98856292Y-63054643D01*
X98838000Y-62962683D01*
X98838000Y-62868917D01*
X98856292Y-62776957D01*
X98892174Y-62690331D01*
X98892174Y-62690330D01*
X98944267Y-62612368D01*
X99010568Y-62546067D01*
X99088530Y-62493974D01*
X99124412Y-62479111D01*
X99175157Y-62458092D01*
X99267117Y-62439800D01*
X99360883Y-62439800D01*
X99452843Y-62458092D01*
G37*
M02*
