G04 #@! TF.GenerationSoftware,KiCad,Pcbnew,(5.1.5)-3*
G04 #@! TF.CreationDate,2021-01-12T18:04:03+01:00*
G04 #@! TF.ProjectId,ndsbreakoutboard,6e647362-7265-4616-9b6f-7574626f6172,1.0*
G04 #@! TF.SameCoordinates,Original*
G04 #@! TF.FileFunction,Legend,Top*
G04 #@! TF.FilePolarity,Positive*
%FSLAX46Y46*%
G04 Gerber Fmt 4.6, Leading zero omitted, Abs format (unit mm)*
G04 Created by KiCad (PCBNEW (5.1.5)-3) date 2021-01-12 18:04:03*
%MOMM*%
%LPD*%
G04 APERTURE LIST*
%ADD10C,0.150000*%
%ADD11C,0.120000*%
G04 APERTURE END LIST*
D10*
X108702380Y-84963095D02*
X107702380Y-84963095D01*
X107702380Y-84725000D01*
X107750000Y-84582142D01*
X107845238Y-84486904D01*
X107940476Y-84439285D01*
X108130952Y-84391666D01*
X108273809Y-84391666D01*
X108464285Y-84439285D01*
X108559523Y-84486904D01*
X108654761Y-84582142D01*
X108702380Y-84725000D01*
X108702380Y-84963095D01*
X107702380Y-84058333D02*
X107702380Y-83391666D01*
X108702380Y-83820238D01*
X107202380Y-84963095D02*
X106202380Y-84963095D01*
X106202380Y-84725000D01*
X106250000Y-84582142D01*
X106345238Y-84486904D01*
X106440476Y-84439285D01*
X106630952Y-84391666D01*
X106773809Y-84391666D01*
X106964285Y-84439285D01*
X107059523Y-84486904D01*
X107154761Y-84582142D01*
X107202380Y-84725000D01*
X107202380Y-84963095D01*
X106202380Y-83534523D02*
X106202380Y-83725000D01*
X106250000Y-83820238D01*
X106297619Y-83867857D01*
X106440476Y-83963095D01*
X106630952Y-84010714D01*
X107011904Y-84010714D01*
X107107142Y-83963095D01*
X107154761Y-83915476D01*
X107202380Y-83820238D01*
X107202380Y-83629761D01*
X107154761Y-83534523D01*
X107107142Y-83486904D01*
X107011904Y-83439285D01*
X106773809Y-83439285D01*
X106678571Y-83486904D01*
X106630952Y-83534523D01*
X106583333Y-83629761D01*
X106583333Y-83820238D01*
X106630952Y-83915476D01*
X106678571Y-83963095D01*
X106773809Y-84010714D01*
X105627380Y-84963095D02*
X104627380Y-84963095D01*
X104627380Y-84725000D01*
X104675000Y-84582142D01*
X104770238Y-84486904D01*
X104865476Y-84439285D01*
X105055952Y-84391666D01*
X105198809Y-84391666D01*
X105389285Y-84439285D01*
X105484523Y-84486904D01*
X105579761Y-84582142D01*
X105627380Y-84725000D01*
X105627380Y-84963095D01*
X104627380Y-83486904D02*
X104627380Y-83963095D01*
X105103571Y-84010714D01*
X105055952Y-83963095D01*
X105008333Y-83867857D01*
X105008333Y-83629761D01*
X105055952Y-83534523D01*
X105103571Y-83486904D01*
X105198809Y-83439285D01*
X105436904Y-83439285D01*
X105532142Y-83486904D01*
X105579761Y-83534523D01*
X105627380Y-83629761D01*
X105627380Y-83867857D01*
X105579761Y-83963095D01*
X105532142Y-84010714D01*
X104152380Y-84963095D02*
X103152380Y-84963095D01*
X103152380Y-84725000D01*
X103200000Y-84582142D01*
X103295238Y-84486904D01*
X103390476Y-84439285D01*
X103580952Y-84391666D01*
X103723809Y-84391666D01*
X103914285Y-84439285D01*
X104009523Y-84486904D01*
X104104761Y-84582142D01*
X104152380Y-84725000D01*
X104152380Y-84963095D01*
X103485714Y-83534523D02*
X104152380Y-83534523D01*
X103104761Y-83772619D02*
X103819047Y-84010714D01*
X103819047Y-83391666D01*
X102652380Y-84988095D02*
X101652380Y-84988095D01*
X101652380Y-84750000D01*
X101700000Y-84607142D01*
X101795238Y-84511904D01*
X101890476Y-84464285D01*
X102080952Y-84416666D01*
X102223809Y-84416666D01*
X102414285Y-84464285D01*
X102509523Y-84511904D01*
X102604761Y-84607142D01*
X102652380Y-84750000D01*
X102652380Y-84988095D01*
X101652380Y-84083333D02*
X101652380Y-83464285D01*
X102033333Y-83797619D01*
X102033333Y-83654761D01*
X102080952Y-83559523D01*
X102128571Y-83511904D01*
X102223809Y-83464285D01*
X102461904Y-83464285D01*
X102557142Y-83511904D01*
X102604761Y-83559523D01*
X102652380Y-83654761D01*
X102652380Y-83940476D01*
X102604761Y-84035714D01*
X102557142Y-84083333D01*
X101127380Y-85013095D02*
X100127380Y-85013095D01*
X100127380Y-84775000D01*
X100175000Y-84632142D01*
X100270238Y-84536904D01*
X100365476Y-84489285D01*
X100555952Y-84441666D01*
X100698809Y-84441666D01*
X100889285Y-84489285D01*
X100984523Y-84536904D01*
X101079761Y-84632142D01*
X101127380Y-84775000D01*
X101127380Y-85013095D01*
X100222619Y-84060714D02*
X100175000Y-84013095D01*
X100127380Y-83917857D01*
X100127380Y-83679761D01*
X100175000Y-83584523D01*
X100222619Y-83536904D01*
X100317857Y-83489285D01*
X100413095Y-83489285D01*
X100555952Y-83536904D01*
X101127380Y-84108333D01*
X101127380Y-83489285D01*
X99602380Y-85013095D02*
X98602380Y-85013095D01*
X98602380Y-84775000D01*
X98650000Y-84632142D01*
X98745238Y-84536904D01*
X98840476Y-84489285D01*
X99030952Y-84441666D01*
X99173809Y-84441666D01*
X99364285Y-84489285D01*
X99459523Y-84536904D01*
X99554761Y-84632142D01*
X99602380Y-84775000D01*
X99602380Y-85013095D01*
X99602380Y-83489285D02*
X99602380Y-84060714D01*
X99602380Y-83775000D02*
X98602380Y-83775000D01*
X98745238Y-83870238D01*
X98840476Y-83965476D01*
X98888095Y-84060714D01*
X98152380Y-85038095D02*
X97152380Y-85038095D01*
X97152380Y-84800000D01*
X97200000Y-84657142D01*
X97295238Y-84561904D01*
X97390476Y-84514285D01*
X97580952Y-84466666D01*
X97723809Y-84466666D01*
X97914285Y-84514285D01*
X98009523Y-84561904D01*
X98104761Y-84657142D01*
X98152380Y-84800000D01*
X98152380Y-85038095D01*
X97152380Y-83847619D02*
X97152380Y-83752380D01*
X97200000Y-83657142D01*
X97247619Y-83609523D01*
X97342857Y-83561904D01*
X97533333Y-83514285D01*
X97771428Y-83514285D01*
X97961904Y-83561904D01*
X98057142Y-83609523D01*
X98104761Y-83657142D01*
X98152380Y-83752380D01*
X98152380Y-83847619D01*
X98104761Y-83942857D01*
X98057142Y-83990476D01*
X97961904Y-84038095D01*
X97771428Y-84085714D01*
X97533333Y-84085714D01*
X97342857Y-84038095D01*
X97247619Y-83990476D01*
X97200000Y-83942857D01*
X97152380Y-83847619D01*
X95702380Y-85026190D02*
X95702380Y-84407142D01*
X96083333Y-84740476D01*
X96083333Y-84597619D01*
X96130952Y-84502380D01*
X96178571Y-84454761D01*
X96273809Y-84407142D01*
X96511904Y-84407142D01*
X96607142Y-84454761D01*
X96654761Y-84502380D01*
X96702380Y-84597619D01*
X96702380Y-84883333D01*
X96654761Y-84978571D01*
X96607142Y-85026190D01*
X96607142Y-83978571D02*
X96654761Y-83930952D01*
X96702380Y-83978571D01*
X96654761Y-84026190D01*
X96607142Y-83978571D01*
X96702380Y-83978571D01*
X95702380Y-83597619D02*
X95702380Y-82978571D01*
X96083333Y-83311904D01*
X96083333Y-83169047D01*
X96130952Y-83073809D01*
X96178571Y-83026190D01*
X96273809Y-82978571D01*
X96511904Y-82978571D01*
X96607142Y-83026190D01*
X96654761Y-83073809D01*
X96702380Y-83169047D01*
X96702380Y-83454761D01*
X96654761Y-83550000D01*
X96607142Y-83597619D01*
X95702380Y-82692857D02*
X96702380Y-82359523D01*
X95702380Y-82026190D01*
X95127380Y-85023809D02*
X94127380Y-85023809D01*
X95127380Y-83976190D02*
X94651190Y-84309523D01*
X95127380Y-84547619D02*
X94127380Y-84547619D01*
X94127380Y-84166666D01*
X94175000Y-84071428D01*
X94222619Y-84023809D01*
X94317857Y-83976190D01*
X94460714Y-83976190D01*
X94555952Y-84023809D01*
X94603571Y-84071428D01*
X94651190Y-84166666D01*
X94651190Y-84547619D01*
X95222619Y-82880952D02*
X95175000Y-82976190D01*
X95079761Y-83071428D01*
X94936904Y-83214285D01*
X94889285Y-83309523D01*
X94889285Y-83404761D01*
X95127380Y-83357142D02*
X95079761Y-83452380D01*
X94984523Y-83547619D01*
X94794047Y-83595238D01*
X94460714Y-83595238D01*
X94270238Y-83547619D01*
X94175000Y-83452380D01*
X94127380Y-83357142D01*
X94127380Y-83166666D01*
X94175000Y-83071428D01*
X94270238Y-82976190D01*
X94460714Y-82928571D01*
X94794047Y-82928571D01*
X94984523Y-82976190D01*
X95079761Y-83071428D01*
X95127380Y-83166666D01*
X95127380Y-83357142D01*
X93557142Y-84417857D02*
X93604761Y-84465476D01*
X93652380Y-84608333D01*
X93652380Y-84703571D01*
X93604761Y-84846428D01*
X93509523Y-84941666D01*
X93414285Y-84989285D01*
X93223809Y-85036904D01*
X93080952Y-85036904D01*
X92890476Y-84989285D01*
X92795238Y-84941666D01*
X92700000Y-84846428D01*
X92652380Y-84703571D01*
X92652380Y-84608333D01*
X92700000Y-84465476D01*
X92747619Y-84417857D01*
X93604761Y-84036904D02*
X93652380Y-83894047D01*
X93652380Y-83655952D01*
X93604761Y-83560714D01*
X93557142Y-83513095D01*
X93461904Y-83465476D01*
X93366666Y-83465476D01*
X93271428Y-83513095D01*
X93223809Y-83560714D01*
X93176190Y-83655952D01*
X93128571Y-83846428D01*
X93080952Y-83941666D01*
X93033333Y-83989285D01*
X92938095Y-84036904D01*
X92842857Y-84036904D01*
X92747619Y-83989285D01*
X92700000Y-83941666D01*
X92652380Y-83846428D01*
X92652380Y-83608333D01*
X92700000Y-83465476D01*
X92747619Y-83084523D02*
X92700000Y-83036904D01*
X92652380Y-82941666D01*
X92652380Y-82703571D01*
X92700000Y-82608333D01*
X92747619Y-82560714D01*
X92842857Y-82513095D01*
X92938095Y-82513095D01*
X93080952Y-82560714D01*
X93652380Y-83132142D01*
X93652380Y-82513095D01*
X92177380Y-84394047D02*
X91701190Y-84727380D01*
X92177380Y-84965476D02*
X91177380Y-84965476D01*
X91177380Y-84584523D01*
X91225000Y-84489285D01*
X91272619Y-84441666D01*
X91367857Y-84394047D01*
X91510714Y-84394047D01*
X91605952Y-84441666D01*
X91653571Y-84489285D01*
X91701190Y-84584523D01*
X91701190Y-84965476D01*
X91653571Y-83965476D02*
X91653571Y-83632142D01*
X92177380Y-83489285D02*
X92177380Y-83965476D01*
X91177380Y-83965476D01*
X91177380Y-83489285D01*
X92129761Y-83108333D02*
X92177380Y-82965476D01*
X92177380Y-82727380D01*
X92129761Y-82632142D01*
X92082142Y-82584523D01*
X91986904Y-82536904D01*
X91891666Y-82536904D01*
X91796428Y-82584523D01*
X91748809Y-82632142D01*
X91701190Y-82727380D01*
X91653571Y-82917857D01*
X91605952Y-83013095D01*
X91558333Y-83060714D01*
X91463095Y-83108333D01*
X91367857Y-83108333D01*
X91272619Y-83060714D01*
X91225000Y-83013095D01*
X91177380Y-82917857D01*
X91177380Y-82679761D01*
X91225000Y-82536904D01*
X90532142Y-84417857D02*
X90579761Y-84465476D01*
X90627380Y-84608333D01*
X90627380Y-84703571D01*
X90579761Y-84846428D01*
X90484523Y-84941666D01*
X90389285Y-84989285D01*
X90198809Y-85036904D01*
X90055952Y-85036904D01*
X89865476Y-84989285D01*
X89770238Y-84941666D01*
X89675000Y-84846428D01*
X89627380Y-84703571D01*
X89627380Y-84608333D01*
X89675000Y-84465476D01*
X89722619Y-84417857D01*
X90579761Y-84036904D02*
X90627380Y-83894047D01*
X90627380Y-83655952D01*
X90579761Y-83560714D01*
X90532142Y-83513095D01*
X90436904Y-83465476D01*
X90341666Y-83465476D01*
X90246428Y-83513095D01*
X90198809Y-83560714D01*
X90151190Y-83655952D01*
X90103571Y-83846428D01*
X90055952Y-83941666D01*
X90008333Y-83989285D01*
X89913095Y-84036904D01*
X89817857Y-84036904D01*
X89722619Y-83989285D01*
X89675000Y-83941666D01*
X89627380Y-83846428D01*
X89627380Y-83608333D01*
X89675000Y-83465476D01*
X90627380Y-82513095D02*
X90627380Y-83084523D01*
X90627380Y-82798809D02*
X89627380Y-82798809D01*
X89770238Y-82894047D01*
X89865476Y-82989285D01*
X89913095Y-83084523D01*
X88149180Y-85200952D02*
X89149180Y-84867619D01*
X88149180Y-84534285D01*
X89149180Y-84200952D02*
X88149180Y-84200952D01*
X88625371Y-84200952D02*
X88625371Y-83629523D01*
X89149180Y-83629523D02*
X88149180Y-83629523D01*
X89149180Y-83153333D02*
X88149180Y-83153333D01*
X88625371Y-83153333D02*
X88625371Y-82581904D01*
X89149180Y-82581904D02*
X88149180Y-82581904D01*
X87607142Y-84445238D02*
X87654761Y-84492857D01*
X87702380Y-84635714D01*
X87702380Y-84730952D01*
X87654761Y-84873809D01*
X87559523Y-84969047D01*
X87464285Y-85016666D01*
X87273809Y-85064285D01*
X87130952Y-85064285D01*
X86940476Y-85016666D01*
X86845238Y-84969047D01*
X86750000Y-84873809D01*
X86702380Y-84730952D01*
X86702380Y-84635714D01*
X86750000Y-84492857D01*
X86797619Y-84445238D01*
X87702380Y-83540476D02*
X87702380Y-84016666D01*
X86702380Y-84016666D01*
X87702380Y-83207142D02*
X86702380Y-83207142D01*
X87702380Y-82635714D02*
X87130952Y-83064285D01*
X86702380Y-82635714D02*
X87273809Y-83207142D01*
X109275000Y-84518404D02*
X109227380Y-84613642D01*
X109227380Y-84756500D01*
X109275000Y-84899357D01*
X109370238Y-84994595D01*
X109465476Y-85042214D01*
X109655952Y-85089833D01*
X109798809Y-85089833D01*
X109989285Y-85042214D01*
X110084523Y-84994595D01*
X110179761Y-84899357D01*
X110227380Y-84756500D01*
X110227380Y-84661261D01*
X110179761Y-84518404D01*
X110132142Y-84470785D01*
X109798809Y-84470785D01*
X109798809Y-84661261D01*
X110227380Y-84042214D02*
X109227380Y-84042214D01*
X110227380Y-83470785D01*
X109227380Y-83470785D01*
X110227380Y-82994595D02*
X109227380Y-82994595D01*
X109227380Y-82756500D01*
X109275000Y-82613642D01*
X109370238Y-82518404D01*
X109465476Y-82470785D01*
X109655952Y-82423166D01*
X109798809Y-82423166D01*
X109989285Y-82470785D01*
X110084523Y-82518404D01*
X110179761Y-82613642D01*
X110227380Y-82756500D01*
X110227380Y-82994595D01*
X85225000Y-84511904D02*
X85177380Y-84607142D01*
X85177380Y-84750000D01*
X85225000Y-84892857D01*
X85320238Y-84988095D01*
X85415476Y-85035714D01*
X85605952Y-85083333D01*
X85748809Y-85083333D01*
X85939285Y-85035714D01*
X86034523Y-84988095D01*
X86129761Y-84892857D01*
X86177380Y-84750000D01*
X86177380Y-84654761D01*
X86129761Y-84511904D01*
X86082142Y-84464285D01*
X85748809Y-84464285D01*
X85748809Y-84654761D01*
X86177380Y-84035714D02*
X85177380Y-84035714D01*
X86177380Y-83464285D01*
X85177380Y-83464285D01*
X86177380Y-82988095D02*
X85177380Y-82988095D01*
X85177380Y-82750000D01*
X85225000Y-82607142D01*
X85320238Y-82511904D01*
X85415476Y-82464285D01*
X85605952Y-82416666D01*
X85748809Y-82416666D01*
X85939285Y-82464285D01*
X86034523Y-82511904D01*
X86129761Y-82607142D01*
X86177380Y-82750000D01*
X86177380Y-82988095D01*
D11*
X84770001Y-85705000D02*
X84770001Y-91705000D01*
X84770001Y-91705000D02*
X110720001Y-91705000D01*
X110720001Y-91705000D02*
X110720001Y-85755000D01*
X110720001Y-85755000D02*
X84720001Y-85755000D01*
X108863200Y-62281600D02*
X108863200Y-61656600D01*
X108863200Y-61656600D02*
X109983200Y-61656600D01*
X109983200Y-61656600D02*
X109983200Y-62281600D01*
X109213200Y-61656600D02*
X109213200Y-59656600D01*
X109213200Y-59656600D02*
X109633200Y-59656600D01*
X109633200Y-59656600D02*
X109633200Y-61656600D01*
X109273200Y-61656600D02*
X109273200Y-59656600D01*
X109393200Y-61656600D02*
X109393200Y-59656600D01*
X109513200Y-61656600D02*
X109513200Y-59656600D01*
X109423200Y-63651600D02*
X108738200Y-63651600D01*
X108738200Y-63651600D02*
X108738200Y-62966600D01*
X86513200Y-63651600D02*
X86513200Y-62966600D01*
X87198200Y-63651600D02*
X86513200Y-63651600D01*
X87288200Y-61656600D02*
X87288200Y-59656600D01*
X87168200Y-61656600D02*
X87168200Y-59656600D01*
X87048200Y-61656600D02*
X87048200Y-59656600D01*
X87408200Y-59656600D02*
X87408200Y-61656600D01*
X86988200Y-59656600D02*
X87408200Y-59656600D01*
X86988200Y-61656600D02*
X86988200Y-59656600D01*
X87758200Y-61656600D02*
X87758200Y-62281600D01*
X86638200Y-61656600D02*
X87758200Y-61656600D01*
X86638200Y-62281600D02*
X86638200Y-61656600D01*
X89762400Y-68911000D02*
X89762400Y-68286000D01*
X89762400Y-68286000D02*
X90882400Y-68286000D01*
X90882400Y-68286000D02*
X90882400Y-68911000D01*
X90112400Y-68286000D02*
X90112400Y-66286000D01*
X90112400Y-66286000D02*
X90532400Y-66286000D01*
X90532400Y-66286000D02*
X90532400Y-68286000D01*
X90172400Y-68286000D02*
X90172400Y-66286000D01*
X90292400Y-68286000D02*
X90292400Y-66286000D01*
X90412400Y-68286000D02*
X90412400Y-66286000D01*
X90322400Y-70281000D02*
X89637400Y-70281000D01*
X89637400Y-70281000D02*
X89637400Y-69596000D01*
X90932800Y-63651600D02*
X90932800Y-62966600D01*
X91617800Y-63651600D02*
X90932800Y-63651600D01*
X91707800Y-61656600D02*
X91707800Y-59656600D01*
X91587800Y-61656600D02*
X91587800Y-59656600D01*
X91467800Y-61656600D02*
X91467800Y-59656600D01*
X91827800Y-59656600D02*
X91827800Y-61656600D01*
X91407800Y-59656600D02*
X91827800Y-59656600D01*
X91407800Y-61656600D02*
X91407800Y-59656600D01*
X92177800Y-61656600D02*
X92177800Y-62281600D01*
X91057800Y-61656600D02*
X92177800Y-61656600D01*
X91057800Y-62281600D02*
X91057800Y-61656600D01*
X92759600Y-68911000D02*
X92759600Y-68286000D01*
X92759600Y-68286000D02*
X93879600Y-68286000D01*
X93879600Y-68286000D02*
X93879600Y-68911000D01*
X93109600Y-68286000D02*
X93109600Y-66286000D01*
X93109600Y-66286000D02*
X93529600Y-66286000D01*
X93529600Y-66286000D02*
X93529600Y-68286000D01*
X93169600Y-68286000D02*
X93169600Y-66286000D01*
X93289600Y-68286000D02*
X93289600Y-66286000D01*
X93409600Y-68286000D02*
X93409600Y-66286000D01*
X93319600Y-70281000D02*
X92634600Y-70281000D01*
X92634600Y-70281000D02*
X92634600Y-69596000D01*
X94006200Y-63651600D02*
X94006200Y-62966600D01*
X94691200Y-63651600D02*
X94006200Y-63651600D01*
X94781200Y-61656600D02*
X94781200Y-59656600D01*
X94661200Y-61656600D02*
X94661200Y-59656600D01*
X94541200Y-61656600D02*
X94541200Y-59656600D01*
X94901200Y-59656600D02*
X94901200Y-61656600D01*
X94481200Y-59656600D02*
X94901200Y-59656600D01*
X94481200Y-61656600D02*
X94481200Y-59656600D01*
X95251200Y-61656600D02*
X95251200Y-62281600D01*
X94131200Y-61656600D02*
X95251200Y-61656600D01*
X94131200Y-62281600D02*
X94131200Y-61656600D01*
X97179200Y-68911000D02*
X97179200Y-68286000D01*
X97179200Y-68286000D02*
X98299200Y-68286000D01*
X98299200Y-68286000D02*
X98299200Y-68911000D01*
X97529200Y-68286000D02*
X97529200Y-66286000D01*
X97529200Y-66286000D02*
X97949200Y-66286000D01*
X97949200Y-66286000D02*
X97949200Y-68286000D01*
X97589200Y-68286000D02*
X97589200Y-66286000D01*
X97709200Y-68286000D02*
X97709200Y-66286000D01*
X97829200Y-68286000D02*
X97829200Y-66286000D01*
X97739200Y-70281000D02*
X97054200Y-70281000D01*
X97054200Y-70281000D02*
X97054200Y-69596000D01*
X98629000Y-63600800D02*
X98629000Y-62915800D01*
X99314000Y-63600800D02*
X98629000Y-63600800D01*
X99404000Y-61605800D02*
X99404000Y-59605800D01*
X99284000Y-61605800D02*
X99284000Y-59605800D01*
X99164000Y-61605800D02*
X99164000Y-59605800D01*
X99524000Y-59605800D02*
X99524000Y-61605800D01*
X99104000Y-59605800D02*
X99524000Y-59605800D01*
X99104000Y-61605800D02*
X99104000Y-59605800D01*
X99874000Y-61605800D02*
X99874000Y-62230800D01*
X98754000Y-61605800D02*
X99874000Y-61605800D01*
X98754000Y-62230800D02*
X98754000Y-61605800D01*
X99858900Y-68911000D02*
X99858900Y-68286000D01*
X99858900Y-68286000D02*
X100978900Y-68286000D01*
X100978900Y-68286000D02*
X100978900Y-68911000D01*
X100208900Y-68286000D02*
X100208900Y-66286000D01*
X100208900Y-66286000D02*
X100628900Y-66286000D01*
X100628900Y-66286000D02*
X100628900Y-68286000D01*
X100268900Y-68286000D02*
X100268900Y-66286000D01*
X100388900Y-68286000D02*
X100388900Y-66286000D01*
X100508900Y-68286000D02*
X100508900Y-66286000D01*
X100418900Y-70281000D02*
X99733900Y-70281000D01*
X99733900Y-70281000D02*
X99733900Y-69596000D01*
X101245200Y-63651600D02*
X101245200Y-62966600D01*
X101930200Y-63651600D02*
X101245200Y-63651600D01*
X102020200Y-61656600D02*
X102020200Y-59656600D01*
X101900200Y-61656600D02*
X101900200Y-59656600D01*
X101780200Y-61656600D02*
X101780200Y-59656600D01*
X102140200Y-59656600D02*
X102140200Y-61656600D01*
X101720200Y-59656600D02*
X102140200Y-59656600D01*
X101720200Y-61656600D02*
X101720200Y-59656600D01*
X102490200Y-61656600D02*
X102490200Y-62281600D01*
X101370200Y-61656600D02*
X102490200Y-61656600D01*
X101370200Y-62281600D02*
X101370200Y-61656600D01*
X102538600Y-68860200D02*
X102538600Y-68235200D01*
X102538600Y-68235200D02*
X103658600Y-68235200D01*
X103658600Y-68235200D02*
X103658600Y-68860200D01*
X102888600Y-68235200D02*
X102888600Y-66235200D01*
X102888600Y-66235200D02*
X103308600Y-66235200D01*
X103308600Y-66235200D02*
X103308600Y-68235200D01*
X102948600Y-68235200D02*
X102948600Y-66235200D01*
X103068600Y-68235200D02*
X103068600Y-66235200D01*
X103188600Y-68235200D02*
X103188600Y-66235200D01*
X103098600Y-70230200D02*
X102413600Y-70230200D01*
X102413600Y-70230200D02*
X102413600Y-69545200D01*
X103861400Y-63651600D02*
X103861400Y-62966600D01*
X104546400Y-63651600D02*
X103861400Y-63651600D01*
X104636400Y-61656600D02*
X104636400Y-59656600D01*
X104516400Y-61656600D02*
X104516400Y-59656600D01*
X104396400Y-61656600D02*
X104396400Y-59656600D01*
X104756400Y-59656600D02*
X104756400Y-61656600D01*
X104336400Y-59656600D02*
X104756400Y-59656600D01*
X104336400Y-61656600D02*
X104336400Y-59656600D01*
X105106400Y-61656600D02*
X105106400Y-62281600D01*
X103986400Y-61656600D02*
X105106400Y-61656600D01*
X103986400Y-62281600D02*
X103986400Y-61656600D01*
X105218300Y-68860200D02*
X105218300Y-68235200D01*
X105218300Y-68235200D02*
X106338300Y-68235200D01*
X106338300Y-68235200D02*
X106338300Y-68860200D01*
X105568300Y-68235200D02*
X105568300Y-66235200D01*
X105568300Y-66235200D02*
X105988300Y-66235200D01*
X105988300Y-66235200D02*
X105988300Y-68235200D01*
X105628300Y-68235200D02*
X105628300Y-66235200D01*
X105748300Y-68235200D02*
X105748300Y-66235200D01*
X105868300Y-68235200D02*
X105868300Y-66235200D01*
X105778300Y-70230200D02*
X105093300Y-70230200D01*
X105093300Y-70230200D02*
X105093300Y-69545200D01*
X107773000Y-70230200D02*
X107773000Y-69545200D01*
X108458000Y-70230200D02*
X107773000Y-70230200D01*
X108548000Y-68235200D02*
X108548000Y-66235200D01*
X108428000Y-68235200D02*
X108428000Y-66235200D01*
X108308000Y-68235200D02*
X108308000Y-66235200D01*
X108668000Y-66235200D02*
X108668000Y-68235200D01*
X108248000Y-66235200D02*
X108668000Y-66235200D01*
X108248000Y-68235200D02*
X108248000Y-66235200D01*
X109018000Y-68235200D02*
X109018000Y-68860200D01*
X107898000Y-68235200D02*
X109018000Y-68235200D01*
X107898000Y-68860200D02*
X107898000Y-68235200D01*
X88086000Y-77953400D02*
X88086000Y-77328400D01*
X88086000Y-77328400D02*
X89206000Y-77328400D01*
X89206000Y-77328400D02*
X89206000Y-77953400D01*
X88436000Y-77328400D02*
X88436000Y-75328400D01*
X88436000Y-75328400D02*
X88856000Y-75328400D01*
X88856000Y-75328400D02*
X88856000Y-77328400D01*
X88496000Y-77328400D02*
X88496000Y-75328400D01*
X88616000Y-77328400D02*
X88616000Y-75328400D01*
X88736000Y-77328400D02*
X88736000Y-75328400D01*
X88646000Y-79323400D02*
X87961000Y-79323400D01*
X87961000Y-79323400D02*
X87961000Y-78638400D01*
X95604400Y-77953400D02*
X95604400Y-77328400D01*
X95604400Y-77328400D02*
X96724400Y-77328400D01*
X96724400Y-77328400D02*
X96724400Y-77953400D01*
X95954400Y-77328400D02*
X95954400Y-75328400D01*
X95954400Y-75328400D02*
X96374400Y-75328400D01*
X96374400Y-75328400D02*
X96374400Y-77328400D01*
X96014400Y-77328400D02*
X96014400Y-75328400D01*
X96134400Y-77328400D02*
X96134400Y-75328400D01*
X96254400Y-77328400D02*
X96254400Y-75328400D01*
X96164400Y-79323400D02*
X95479400Y-79323400D01*
X95479400Y-79323400D02*
X95479400Y-78638400D01*
D10*
X110117000Y-66395504D02*
X110069380Y-66490742D01*
X110069380Y-66633600D01*
X110117000Y-66776457D01*
X110212238Y-66871695D01*
X110307476Y-66919314D01*
X110497952Y-66966933D01*
X110640809Y-66966933D01*
X110831285Y-66919314D01*
X110926523Y-66871695D01*
X111021761Y-66776457D01*
X111069380Y-66633600D01*
X111069380Y-66538361D01*
X111021761Y-66395504D01*
X110974142Y-66347885D01*
X110640809Y-66347885D01*
X110640809Y-66538361D01*
X111069380Y-65919314D02*
X110069380Y-65919314D01*
X111069380Y-65347885D01*
X110069380Y-65347885D01*
X111069380Y-64871695D02*
X110069380Y-64871695D01*
X110069380Y-64633600D01*
X110117000Y-64490742D01*
X110212238Y-64395504D01*
X110307476Y-64347885D01*
X110497952Y-64300266D01*
X110640809Y-64300266D01*
X110831285Y-64347885D01*
X110926523Y-64395504D01*
X111021761Y-64490742D01*
X111069380Y-64633600D01*
X111069380Y-64871695D01*
X87504542Y-66584438D02*
X87552161Y-66632057D01*
X87599780Y-66774914D01*
X87599780Y-66870152D01*
X87552161Y-67013009D01*
X87456923Y-67108247D01*
X87361685Y-67155866D01*
X87171209Y-67203485D01*
X87028352Y-67203485D01*
X86837876Y-67155866D01*
X86742638Y-67108247D01*
X86647400Y-67013009D01*
X86599780Y-66870152D01*
X86599780Y-66774914D01*
X86647400Y-66632057D01*
X86695019Y-66584438D01*
X87599780Y-65679676D02*
X87599780Y-66155866D01*
X86599780Y-66155866D01*
X87599780Y-65346342D02*
X86599780Y-65346342D01*
X87599780Y-64774914D02*
X87028352Y-65203485D01*
X86599780Y-64774914D02*
X87171209Y-65346342D01*
X90603342Y-72931257D02*
X90650961Y-72978876D01*
X90698580Y-73121733D01*
X90698580Y-73216971D01*
X90650961Y-73359828D01*
X90555723Y-73455066D01*
X90460485Y-73502685D01*
X90270009Y-73550304D01*
X90127152Y-73550304D01*
X89936676Y-73502685D01*
X89841438Y-73455066D01*
X89746200Y-73359828D01*
X89698580Y-73216971D01*
X89698580Y-73121733D01*
X89746200Y-72978876D01*
X89793819Y-72931257D01*
X90650961Y-72550304D02*
X90698580Y-72407447D01*
X90698580Y-72169352D01*
X90650961Y-72074114D01*
X90603342Y-72026495D01*
X90508104Y-71978876D01*
X90412866Y-71978876D01*
X90317628Y-72026495D01*
X90270009Y-72074114D01*
X90222390Y-72169352D01*
X90174771Y-72359828D01*
X90127152Y-72455066D01*
X90079533Y-72502685D01*
X89984295Y-72550304D01*
X89889057Y-72550304D01*
X89793819Y-72502685D01*
X89746200Y-72455066D01*
X89698580Y-72359828D01*
X89698580Y-72121733D01*
X89746200Y-71978876D01*
X90698580Y-71026495D02*
X90698580Y-71597923D01*
X90698580Y-71312209D02*
X89698580Y-71312209D01*
X89841438Y-71407447D01*
X89936676Y-71502685D01*
X89984295Y-71597923D01*
X92197180Y-66201847D02*
X91720990Y-66535180D01*
X92197180Y-66773276D02*
X91197180Y-66773276D01*
X91197180Y-66392323D01*
X91244800Y-66297085D01*
X91292419Y-66249466D01*
X91387657Y-66201847D01*
X91530514Y-66201847D01*
X91625752Y-66249466D01*
X91673371Y-66297085D01*
X91720990Y-66392323D01*
X91720990Y-66773276D01*
X91673371Y-65773276D02*
X91673371Y-65439942D01*
X92197180Y-65297085D02*
X92197180Y-65773276D01*
X91197180Y-65773276D01*
X91197180Y-65297085D01*
X92149561Y-64916133D02*
X92197180Y-64773276D01*
X92197180Y-64535180D01*
X92149561Y-64439942D01*
X92101942Y-64392323D01*
X92006704Y-64344704D01*
X91911466Y-64344704D01*
X91816228Y-64392323D01*
X91768609Y-64439942D01*
X91720990Y-64535180D01*
X91673371Y-64725657D01*
X91625752Y-64820895D01*
X91578133Y-64868514D01*
X91482895Y-64916133D01*
X91387657Y-64916133D01*
X91292419Y-64868514D01*
X91244800Y-64820895D01*
X91197180Y-64725657D01*
X91197180Y-64487561D01*
X91244800Y-64344704D01*
X93575142Y-72982057D02*
X93622761Y-73029676D01*
X93670380Y-73172533D01*
X93670380Y-73267771D01*
X93622761Y-73410628D01*
X93527523Y-73505866D01*
X93432285Y-73553485D01*
X93241809Y-73601104D01*
X93098952Y-73601104D01*
X92908476Y-73553485D01*
X92813238Y-73505866D01*
X92718000Y-73410628D01*
X92670380Y-73267771D01*
X92670380Y-73172533D01*
X92718000Y-73029676D01*
X92765619Y-72982057D01*
X93622761Y-72601104D02*
X93670380Y-72458247D01*
X93670380Y-72220152D01*
X93622761Y-72124914D01*
X93575142Y-72077295D01*
X93479904Y-72029676D01*
X93384666Y-72029676D01*
X93289428Y-72077295D01*
X93241809Y-72124914D01*
X93194190Y-72220152D01*
X93146571Y-72410628D01*
X93098952Y-72505866D01*
X93051333Y-72553485D01*
X92956095Y-72601104D01*
X92860857Y-72601104D01*
X92765619Y-72553485D01*
X92718000Y-72505866D01*
X92670380Y-72410628D01*
X92670380Y-72172533D01*
X92718000Y-72029676D01*
X92765619Y-71648723D02*
X92718000Y-71601104D01*
X92670380Y-71505866D01*
X92670380Y-71267771D01*
X92718000Y-71172533D01*
X92765619Y-71124914D01*
X92860857Y-71077295D01*
X92956095Y-71077295D01*
X93098952Y-71124914D01*
X93670380Y-71696342D01*
X93670380Y-71077295D01*
X95143580Y-66428809D02*
X94143580Y-66428809D01*
X95143580Y-65381190D02*
X94667390Y-65714523D01*
X95143580Y-65952619D02*
X94143580Y-65952619D01*
X94143580Y-65571666D01*
X94191200Y-65476428D01*
X94238819Y-65428809D01*
X94334057Y-65381190D01*
X94476914Y-65381190D01*
X94572152Y-65428809D01*
X94619771Y-65476428D01*
X94667390Y-65571666D01*
X94667390Y-65952619D01*
X95238819Y-64285952D02*
X95191200Y-64381190D01*
X95095961Y-64476428D01*
X94953104Y-64619285D01*
X94905485Y-64714523D01*
X94905485Y-64809761D01*
X95143580Y-64762142D02*
X95095961Y-64857380D01*
X95000723Y-64952619D01*
X94810247Y-65000238D01*
X94476914Y-65000238D01*
X94286438Y-64952619D01*
X94191200Y-64857380D01*
X94143580Y-64762142D01*
X94143580Y-64571666D01*
X94191200Y-64476428D01*
X94286438Y-64381190D01*
X94476914Y-64333571D01*
X94810247Y-64333571D01*
X95000723Y-64381190D01*
X95095961Y-64476428D01*
X95143580Y-64571666D01*
X95143580Y-64762142D01*
X98191580Y-72899495D02*
X97191580Y-72899495D01*
X97191580Y-72661400D01*
X97239200Y-72518542D01*
X97334438Y-72423304D01*
X97429676Y-72375685D01*
X97620152Y-72328066D01*
X97763009Y-72328066D01*
X97953485Y-72375685D01*
X98048723Y-72423304D01*
X98143961Y-72518542D01*
X98191580Y-72661400D01*
X98191580Y-72899495D01*
X97191580Y-71709019D02*
X97191580Y-71613780D01*
X97239200Y-71518542D01*
X97286819Y-71470923D01*
X97382057Y-71423304D01*
X97572533Y-71375685D01*
X97810628Y-71375685D01*
X98001104Y-71423304D01*
X98096342Y-71470923D01*
X98143961Y-71518542D01*
X98191580Y-71613780D01*
X98191580Y-71709019D01*
X98143961Y-71804257D01*
X98096342Y-71851876D01*
X98001104Y-71899495D01*
X97810628Y-71947114D01*
X97572533Y-71947114D01*
X97382057Y-71899495D01*
X97286819Y-71851876D01*
X97239200Y-71804257D01*
X97191580Y-71709019D01*
X99690180Y-65558895D02*
X98690180Y-65558895D01*
X98690180Y-65320800D01*
X98737800Y-65177942D01*
X98833038Y-65082704D01*
X98928276Y-65035085D01*
X99118752Y-64987466D01*
X99261609Y-64987466D01*
X99452085Y-65035085D01*
X99547323Y-65082704D01*
X99642561Y-65177942D01*
X99690180Y-65320800D01*
X99690180Y-65558895D01*
X99690180Y-64035085D02*
X99690180Y-64606514D01*
X99690180Y-64320800D02*
X98690180Y-64320800D01*
X98833038Y-64416038D01*
X98928276Y-64511276D01*
X98975895Y-64606514D01*
X100960180Y-72848695D02*
X99960180Y-72848695D01*
X99960180Y-72610600D01*
X100007800Y-72467742D01*
X100103038Y-72372504D01*
X100198276Y-72324885D01*
X100388752Y-72277266D01*
X100531609Y-72277266D01*
X100722085Y-72324885D01*
X100817323Y-72372504D01*
X100912561Y-72467742D01*
X100960180Y-72610600D01*
X100960180Y-72848695D01*
X100055419Y-71896314D02*
X100007800Y-71848695D01*
X99960180Y-71753457D01*
X99960180Y-71515361D01*
X100007800Y-71420123D01*
X100055419Y-71372504D01*
X100150657Y-71324885D01*
X100245895Y-71324885D01*
X100388752Y-71372504D01*
X100960180Y-71943933D01*
X100960180Y-71324885D01*
X102407980Y-65609695D02*
X101407980Y-65609695D01*
X101407980Y-65371600D01*
X101455600Y-65228742D01*
X101550838Y-65133504D01*
X101646076Y-65085885D01*
X101836552Y-65038266D01*
X101979409Y-65038266D01*
X102169885Y-65085885D01*
X102265123Y-65133504D01*
X102360361Y-65228742D01*
X102407980Y-65371600D01*
X102407980Y-65609695D01*
X101407980Y-64704933D02*
X101407980Y-64085885D01*
X101788933Y-64419219D01*
X101788933Y-64276361D01*
X101836552Y-64181123D01*
X101884171Y-64133504D01*
X101979409Y-64085885D01*
X102217504Y-64085885D01*
X102312742Y-64133504D01*
X102360361Y-64181123D01*
X102407980Y-64276361D01*
X102407980Y-64562076D01*
X102360361Y-64657314D01*
X102312742Y-64704933D01*
X103576380Y-72899495D02*
X102576380Y-72899495D01*
X102576380Y-72661400D01*
X102624000Y-72518542D01*
X102719238Y-72423304D01*
X102814476Y-72375685D01*
X103004952Y-72328066D01*
X103147809Y-72328066D01*
X103338285Y-72375685D01*
X103433523Y-72423304D01*
X103528761Y-72518542D01*
X103576380Y-72661400D01*
X103576380Y-72899495D01*
X102909714Y-71470923D02*
X103576380Y-71470923D01*
X102528761Y-71709019D02*
X103243047Y-71947114D01*
X103243047Y-71328066D01*
X104922580Y-65787495D02*
X103922580Y-65787495D01*
X103922580Y-65549400D01*
X103970200Y-65406542D01*
X104065438Y-65311304D01*
X104160676Y-65263685D01*
X104351152Y-65216066D01*
X104494009Y-65216066D01*
X104684485Y-65263685D01*
X104779723Y-65311304D01*
X104874961Y-65406542D01*
X104922580Y-65549400D01*
X104922580Y-65787495D01*
X103922580Y-64311304D02*
X103922580Y-64787495D01*
X104398771Y-64835114D01*
X104351152Y-64787495D01*
X104303533Y-64692257D01*
X104303533Y-64454161D01*
X104351152Y-64358923D01*
X104398771Y-64311304D01*
X104494009Y-64263685D01*
X104732104Y-64263685D01*
X104827342Y-64311304D01*
X104874961Y-64358923D01*
X104922580Y-64454161D01*
X104922580Y-64692257D01*
X104874961Y-64787495D01*
X104827342Y-64835114D01*
X106167180Y-72899495D02*
X105167180Y-72899495D01*
X105167180Y-72661400D01*
X105214800Y-72518542D01*
X105310038Y-72423304D01*
X105405276Y-72375685D01*
X105595752Y-72328066D01*
X105738609Y-72328066D01*
X105929085Y-72375685D01*
X106024323Y-72423304D01*
X106119561Y-72518542D01*
X106167180Y-72661400D01*
X106167180Y-72899495D01*
X105167180Y-71470923D02*
X105167180Y-71661400D01*
X105214800Y-71756638D01*
X105262419Y-71804257D01*
X105405276Y-71899495D01*
X105595752Y-71947114D01*
X105976704Y-71947114D01*
X106071942Y-71899495D01*
X106119561Y-71851876D01*
X106167180Y-71756638D01*
X106167180Y-71566161D01*
X106119561Y-71470923D01*
X106071942Y-71423304D01*
X105976704Y-71375685D01*
X105738609Y-71375685D01*
X105643371Y-71423304D01*
X105595752Y-71470923D01*
X105548133Y-71566161D01*
X105548133Y-71756638D01*
X105595752Y-71851876D01*
X105643371Y-71899495D01*
X105738609Y-71947114D01*
X108656380Y-72899495D02*
X107656380Y-72899495D01*
X107656380Y-72661400D01*
X107704000Y-72518542D01*
X107799238Y-72423304D01*
X107894476Y-72375685D01*
X108084952Y-72328066D01*
X108227809Y-72328066D01*
X108418285Y-72375685D01*
X108513523Y-72423304D01*
X108608761Y-72518542D01*
X108656380Y-72661400D01*
X108656380Y-72899495D01*
X107656380Y-71994733D02*
X107656380Y-71328066D01*
X108656380Y-71756638D01*
M02*
