G04 #@! TF.GenerationSoftware,KiCad,Pcbnew,(5.1.5)-3*
G04 #@! TF.CreationDate,2021-02-19T13:32:03+01:00*
G04 #@! TF.ProjectId,ndsbreakoutboard,6e647362-7265-4616-9b6f-7574626f6172,1.0*
G04 #@! TF.SameCoordinates,Original*
G04 #@! TF.FileFunction,Copper,L1,Top*
G04 #@! TF.FilePolarity,Positive*
%FSLAX46Y46*%
G04 Gerber Fmt 4.6, Leading zero omitted, Abs format (unit mm)*
G04 Created by KiCad (PCBNEW (5.1.5)-3) date 2021-02-19 13:32:03*
%MOMM*%
%LPD*%
G04 APERTURE LIST*
%ADD10R,1.000000X5.000000*%
%ADD11R,1.000000X3.800000*%
%ADD12R,1.000000X4.500000*%
%ADD13R,0.850000X0.850000*%
%ADD14C,0.850000*%
%ADD15C,2.100000*%
%ADD16C,0.800000*%
%ADD17C,0.250000*%
G04 APERTURE END LIST*
D10*
X85670001Y-88655000D03*
D11*
X87170001Y-88055000D03*
X90170001Y-88055000D03*
X88670001Y-88055000D03*
X94670001Y-88055000D03*
X93170001Y-88055000D03*
X91670001Y-88055000D03*
D12*
X96170001Y-88405000D03*
D11*
X100670001Y-88055000D03*
X99170001Y-88055000D03*
X102170001Y-88055000D03*
X103670001Y-88055000D03*
X105170001Y-88055000D03*
X97670001Y-88055000D03*
X108170001Y-88055000D03*
X106670001Y-88055000D03*
D10*
X109670001Y-88655000D03*
D13*
X109423200Y-62966600D03*
D14*
X87198200Y-62966600D03*
X90322400Y-69596000D03*
X91617800Y-62966600D03*
X93319600Y-69596000D03*
X94691200Y-62966600D03*
X97739200Y-69596000D03*
X99314000Y-62915800D03*
X100418900Y-69596000D03*
X101930200Y-62966600D03*
X103098600Y-69545200D03*
X104546400Y-62966600D03*
X105778300Y-69545200D03*
X108458000Y-69545200D03*
D13*
X88646000Y-78638400D03*
X96164400Y-78638400D03*
D15*
X106680000Y-64516000D03*
X89535000Y-64516000D03*
D16*
X85648800Y-85064600D03*
X109702600Y-85191600D03*
D17*
X109670001Y-88655000D02*
X109670001Y-90655000D01*
X109670001Y-63213401D02*
X109423200Y-62966600D01*
X109670001Y-85224199D02*
X109702600Y-85191600D01*
X109670001Y-88655000D02*
X109670001Y-85224199D01*
X109347000Y-63042800D02*
X109423200Y-62966600D01*
X85670001Y-85085801D02*
X85648800Y-85064600D01*
X85670001Y-88655000D02*
X85670001Y-85085801D01*
X87170001Y-62943999D02*
X87198200Y-62915800D01*
X87170001Y-62994799D02*
X87198200Y-62966600D01*
X87170001Y-88055000D02*
X87170001Y-62994799D01*
X90170001Y-88055000D02*
X90170000Y-85904999D01*
X90170001Y-69748399D02*
X90322400Y-69596000D01*
X90170001Y-88055000D02*
X90170001Y-69748399D01*
X91670001Y-63018801D02*
X91617800Y-62966600D01*
X91670001Y-88055000D02*
X91670001Y-63018801D01*
X93170001Y-69745599D02*
X93319600Y-69596000D01*
X93170001Y-88055000D02*
X93170001Y-69745599D01*
X94670001Y-62987799D02*
X94691200Y-62966600D01*
X94670001Y-88055000D02*
X94670001Y-62987799D01*
X97670001Y-69665199D02*
X97739200Y-69596000D01*
X97670001Y-88055000D02*
X97670001Y-69665199D01*
X99170001Y-63059799D02*
X99314000Y-62915800D01*
X99170001Y-88055000D02*
X99170001Y-63059799D01*
X100670001Y-69847101D02*
X100418900Y-69596000D01*
X100670001Y-88055000D02*
X100670001Y-69847101D01*
X102170001Y-63206401D02*
X101930200Y-62966600D01*
X102170001Y-88055000D02*
X102170001Y-63206401D01*
X103670001Y-70116601D02*
X103098600Y-69545200D01*
X103670001Y-88055000D02*
X103670001Y-70116601D01*
X104546400Y-63641600D02*
X104546400Y-62966600D01*
X104546400Y-85281399D02*
X104546400Y-63641600D01*
X105170001Y-85905000D02*
X104546400Y-85281399D01*
X105170001Y-88055000D02*
X105170001Y-85905000D01*
X106670001Y-70436901D02*
X105778300Y-69545200D01*
X106670001Y-88055000D02*
X106670001Y-70436901D01*
X108170001Y-69833199D02*
X108458000Y-69545200D01*
X108170001Y-88055000D02*
X108170001Y-69833199D01*
X88670001Y-78662401D02*
X88646000Y-78638400D01*
X88670001Y-88055000D02*
X88670001Y-78662401D01*
X96170001Y-78644001D02*
X96164400Y-78638400D01*
X96170001Y-88405000D02*
X96170001Y-78644001D01*
M02*
